<?xml version="1.0" encoding="utf-8"?>
<!-- Generator: Adobe Illustrator 17.1.0, SVG Export Plug-In . SVG Version: 6.00 Build 0)  -->
<!DOCTYPE svg PUBLIC "-//W3C//DTD SVG 1.1//EN" "http://www.w3.org/Graphics/SVG/1.1/DTD/svg11.dtd">
<svg version="1.1" id="Layer_1" xmlns="http://www.w3.org/2000/svg" xmlns:xlink="http://www.w3.org/1999/xlink" x="0px" y="0px"
	 viewBox="0 0 638.4 590.7" enable-background="new 0 0 638.4 590.7" xml:space="preserve">
<g>
	<g>
		<path d="M24,229.3c0.4-2.5,2.9-4.5,5.4-4.5h18c2.5,0,5.3,2,6.1,4.4l31.2,93.8c0.8,2.4,2.1,2.4,2.9,0l31.5-93.8
			c0.8-2.4,3.5-4.4,6.1-4.4h18c2.5,0,5,2,5.4,4.5l23.1,138c0.4,2.5-1.3,4.5-3.8,4.5H150c-2.5,0-5-2-5.4-4.5l-14.2-83.8
			c-0.4-2.5-1.4-2.6-2.2-0.2l-28.3,84.1c-0.8,2.4-3.5,4.4-6.1,4.4H78.3c-2.5,0-5.3-2-6.1-4.4l-28-84.1c-0.8-2.4-1.8-2.3-2.2,0.2
			l-14.6,83.8c-0.4,2.5-2.9,4.5-5.4,4.5H3.9c-2.5,0-4.3-2-3.8-4.5L24,229.3z"/>
		<path d="M273.2,228.2c18.9,0,35.1,6.8,48.7,20.5c13.6,13.7,20.4,30.3,20.4,50c0,19.5-6.7,35.9-20.1,49.4
			c-13.4,13.5-29.7,20.2-48.8,20.2c-20,0-36.7-6.9-49.9-20.8c-13.2-13.8-19.9-30.3-19.9-49.3c0-12.8,3.1-24.5,9.3-35.2
			c6.2-10.7,14.7-19.2,25.4-25.4C249.1,231.4,260.7,228.2,273.2,228.2z M272.9,253.1c-12.3,0-22.7,4.3-31.1,12.9
			c-8.4,8.6-12.6,19.5-12.6,32.7c0,14.7,5.3,26.4,15.9,35c8.2,6.7,17.7,10.1,28.3,10.1c12,0,22.3-4.4,30.8-13.1
			c8.5-8.7,12.7-19.4,12.7-32.2c0-12.7-4.3-23.4-12.8-32.2C295.5,257.5,285.1,253.1,272.9,253.1z"/>
		<path d="M373.4,235.8c0-2.3,1.9-4.2,4.2-4.2h21.7c2.3,0,6.1,0.1,8.4,0.3c0,0,29.6,2.1,39,6.9c9.4,4.8,17.2,12.6,23.3,23.4
			c6.1,10.8,9.2,23.5,9.2,37.9c0,10.3-1.7,19.7-5.1,28.3c-3.4,8.6-8.1,15.8-14.1,21.4c-6,5.7-12.5,9.6-19.5,11.8
			c-7,2.2-19.1,3.3-36.4,3.3h-26.3c-2.3,0-4.2-1.9-4.2-4.2V235.8z M402.8,256.1c-2.3,0-4.2,1.9-4.2,4.2V336c0,2.3,1.9,4.2,4.2,4.2
			h3.4c2.3,0,6.1-0.1,8.4-0.3c0,0,15.8-1.1,21.1-3.7c5.2-2.7,9.5-7.1,12.8-13.4c3.3-6.3,5-14,5-23.2c0-14.2-4-25.1-11.9-32.9
			c-7.1-7-18.6-10.5-34.4-10.5H402.8z"/>
		<path d="M553.2,229.1c0.9-2.4,3.7-4.3,6.3-4.3h19.2c2.5,0,5.4,1.9,6.3,4.3l53.2,138.4c0.9,2.4-0.4,4.3-3,4.3h-19.9
			c-2.5,0-5.3-1.9-6.2-4.3l-8.2-21.7c-0.9-2.4-3.7-4.3-6.2-4.3h-50.8c-2.5,0-5.4,1.9-6.3,4.3l-8.6,21.7c-0.9,2.4-3.8,4.3-6.3,4.3
			h-19.9c-2.5,0-3.9-1.9-3-4.3L553.2,229.1z M570.9,268c-0.9-2.4-2.4-2.4-3.3,0l-16.4,41.9c-0.9,2.4,0.4,4.3,2.9,4.3h30.1
			c2.5,0,3.9-1.9,2.9-4.3L570.9,268z"/>
	</g>
	<g>
		<g>
			<g>
				<path d="M82.7,142.7l2.4,7.3c0.3,1-0.2,2.3-1.1,2.8c0,0-9.4,5-11.9,10.3c-2.1,4.5-2.4,9.1-0.8,13.6c1.6,4.6,4.7,7.9,9.2,10.1
					c3.2,1.5,6.3,2.1,9.4,1.9c3.1-0.2,5.9-1.2,8.5-3.1c2.6-1.8,4.6-4.3,6.1-7.4c1.2-2.6,1.9-5.2,1.9-7.9c0-2.6-0.6-5.9-2-9.7
					l7.4-2.5c1-0.3,2.1,0.2,2.4,1.3c0,0,2,7.6,1.9,11.4c-0.2,3.7-1.2,7.6-3.1,11.6c-3.5,7.4-8.7,12.3-15.6,14.8
					c-6.9,2.5-14,2-21.3-1.5c-4.7-2.2-8.4-5.3-11.1-9.2c-2.7-3.9-4.2-8.3-4.5-13.4c-0.3-5,0.6-9.9,2.7-14.5
					c1.9-3.9,4.5-7.3,7.8-10.1C74.5,145.8,78.4,143.8,82.7,142.7z"/>
			</g>
			<g>
				<path d="M86.1,125.4c-0.9-0.7-1.1-1.9-0.4-2.8l4-5.2c0.7-0.9,1.8-2.3,2.5-3.1c0,0,5.1-6.1,7.4-7.4c2.3-1.3,4.9-1.9,7.7-1.6
					c2.8,0.3,5.5,1.4,8.1,3.4c2.7,2.1,4.5,4.5,5.4,7.2c0.9,2.7,0.7,5.8-0.3,9.1l24.1,3.9c1.1,0.2,1.4,1,0.8,1.9l-4.2,5.5
					c-0.7,0.9-2.1,1.5-3.2,1.3l-20.9-3.4c-1.1-0.2-2.1-0.2-2.2,0c-0.2,0.2,0.4,0.9,1.3,1.6l14.5,11c0.9,0.7,1.1,1.9,0.4,2.8
					l-3.6,4.8c-0.7,0.9-1.9,1.1-2.8,0.4L86.1,125.4z M105.3,127.4c0.9,0.7,2,0.6,2.5,0c0.5-0.7,1.4-2,2-2.9c0,0,1.8-2.8,1.9-4.3
					c0.1-1.5-0.7-2.8-2.2-3.9c-0.9-0.7-1.9-1.1-2.9-1.1c-1,0-2,0.2-2.9,0.8c-0.9,0.6-2.1,1.9-3.7,4l-0.4,0.6
					c-0.7,0.9-0.5,2.1,0.4,2.8L105.3,127.4z"/>
			</g>
			<g>
				<path d="M116.5,88.2c-0.8-0.8-0.7-2.1,0.1-2.8l17.9-16.9c0.8-0.8,2.1-0.7,2.8,0.1l4,4.2c0.8,0.8,0.7,2.1-0.1,2.8l-10.7,10.1
					c-0.8,0.8-0.8,2-0.1,2.8l3.8,4c0.8,0.8,2,0.8,2.8,0.1l10.7-10.1c0.8-0.8,2.1-0.7,2.8,0.1l3.8,4.1c0.8,0.8,0.7,2.1-0.1,2.8
					l-10.7,10.1c-0.8,0.8-0.8,2-0.1,2.8l6.7,7.1c0.8,0.8,2,0.8,2.8,0.1l10.7-10.1c0.8-0.8,2.1-0.7,2.8,0.1l4,4.2
					c0.8,0.8,0.7,2.1-0.1,2.8l-17.9,16.9c-0.8,0.8-2.1,0.7-2.8-0.1L116.5,88.2z"/>
			</g>
			<g>
				<path d="M162.8,49.6c-0.2-1.1,0.4-2.4,1.3-3l5.2-3.3c0.9-0.6,2.4-0.5,3.3,0.1l42,31c0.9,0.7,0.8,1.7-0.1,2.3l-5.4,3.4
					c-0.9,0.6-2.4,0.5-3.3-0.1l-6.1-4.5c-0.9-0.7-2.4-0.7-3.3-0.1l-14.7,9.3c-0.9,0.6-1.5,2-1.3,3l1.4,7.5c0.2,1.1-0.4,2.4-1.3,3
					l-5.4,3.4c-0.9,0.6-1.9,0.2-2.1-0.9L162.8,49.6z M175.8,57.8c-0.9-0.7-1.4-0.3-1.2,0.8l3,15c0.2,1.1,1.1,1.5,2.1,0.9l8.5-5.4
					c0.9-0.6,1-1.6,0.1-2.3L175.8,57.8z"/>
			</g>
			<g>
				<path d="M197.6,29.7c-0.4-1,0.1-2.2,1.1-2.6l23.1-9.6c1-0.4,2.2,0.1,2.6,1.1l2.2,5.4c0.4,1-0.1,2.2-1.1,2.6l-5.1,2.1
					c-1,0.4-1.5,1.6-1.1,2.6l14.8,35.6c0.4,1-0.1,2.2-1.1,2.6l-5.7,2.4c-1,0.4-2.2-0.1-2.6-1.1L210,35.2c-0.4-1-1.6-1.5-2.6-1.1
					l-4.9,2c-1,0.4-2.2-0.1-2.6-1.1L197.6,29.7z"/>
			</g>
			<g>
				<path d="M234.1,15.6c-0.3-1.1,0.3-2.2,1.3-2.5l5.7-1.7c1.1-0.3,2.2,0.3,2.5,1.3l13.8,46.4c0.3,1.1-0.3,2.2-1.3,2.5l-5.7,1.7
					c-1.1,0.3-2.2-0.3-2.5-1.3L234.1,15.6z"/>
			</g>
			<g>
				<path d="M256.4,8.5c-0.5-1,0-1.9,1-2.1l6.2-0.9c1.1-0.2,2.4,0.5,2.9,1.5l16.5,31.4c0.5,1,1.1,0.9,1.3-0.2l7.1-34.9
					c0.2-1.1,1.3-2.1,2.4-2.2l6.2-0.9c1.1-0.2,1.8,0.6,1.6,1.7l-10.4,50.7c-0.2,1.1-1.3,2.1-2.4,2.2l-5.6,0.8
					c-1.1,0.2-2.4-0.5-2.9-1.5L256.4,8.5z"/>
			</g>
			<g>
				<path d="M317.5,2.2c0-1.1,1-2,2.1-1.9l24.6,1c1.1,0,2,1,1.9,2.1l-0.2,5.8c0,1.1-1,2-2.1,1.9l-14.7-0.6c-1.1,0-2,0.8-2.1,1.9
					l-0.2,5.5c0,1.1,0.8,2,1.9,2.1l14.7,0.6c1.1,0,2,1,1.9,2.1l-0.2,5.6c0,1.1-1,2-2.1,1.9l-14.7-0.6c-1.1,0-2,0.8-2.1,1.9l-0.4,9.8
					c0,1.1,0.8,2,1.9,2.1l14.7,0.6c1.1,0,2,1,1.9,2.1l-0.2,5.8c0,1.1-1,2-2.1,1.9l-24.6-1c-1.1,0-2-1-1.9-2.1L317.5,2.2z"/>
			</g>
			<g>
				<path d="M385.6,9.7c0.3-1,1.5-1.6,2.5-1.3l7.5,2.4c1,0.3,2.7,0.9,3.8,1.3c0,0,10.5,4.2,13.5,7.1c3,2.9,4.9,6.8,5.9,11.6
					c1,4.8,0.6,9.9-1.1,15.3c-1.2,3.8-3,7.2-5.3,10c-2.3,2.8-4.9,4.9-7.8,6.3c-2.9,1.4-5.8,2.1-8.7,2.1c-2.9,0-7.6-1.1-14-3.1
					l-9.5-3c-1-0.3-1.6-1.5-1.3-2.5L385.6,9.7z M394.6,20.6c-1-0.3-2.2,0.3-2.5,1.3l-8.8,27.7c-0.3,1,0.3,2.2,1.3,2.5l0.6,0.2
					c1,0.3,2.8,0.8,3.8,1.1c0,0,5.7,1.4,8,1c2.3-0.4,4.4-1.5,6.4-3.5c2-2,3.5-4.7,4.6-8.1c1.7-5.3,1.5-9.9-0.5-13.8
					c-1.8-3.5-5.7-6.2-11.6-8L394.6,20.6z"/>
			</g>
			<g>
				<path d="M440,29.5c0.5-1,1.7-1.3,2.7-0.8l21.7,11.6c1,0.5,1.3,1.7,0.8,2.7l-2.7,5.1c-0.5,1-1.7,1.3-2.7,0.8l-13-6.9
					c-1-0.5-2.2-0.1-2.7,0.8l-2.6,4.8c-0.5,1-0.1,2.2,0.8,2.7l13,6.9c1,0.5,1.3,1.7,0.8,2.7l-2.6,4.9c-0.5,1-1.7,1.3-2.7,0.8
					l-13-6.9c-1-0.5-2.2-0.1-2.7,0.8l-4.6,8.6c-0.5,1-0.1,2.2,0.8,2.7l13,6.9c1,0.5,1.3,1.7,0.8,2.7l-2.7,5.1
					c-0.5,1-1.7,1.3-2.7,0.8l-21.7-11.6c-1-0.5-1.3-1.7-0.8-2.7L440,29.5z"/>
			</g>
			<g>
				<path d="M497,71.9l-7.8,0.6c-1.1,0.1-2.1-0.7-2.2-1.8c0,0-0.7-5.5-2.8-7.1c-1-0.8-2.1-1.1-3.2-1.1c-1.1,0.1-1.9,0.4-2.4,1.1
					c-0.5,0.7-0.8,1.5-0.8,2.5c0,1.3,0.6,4.6,1.8,9.8c1.1,4.8,1.8,7.8,1.9,9c0.4,2.8,0.4,5.3-0.1,7.3c-0.4,2-1.3,3.9-2.7,5.6
					c-2.6,3.4-5.9,5.4-10,5.8c-4.1,0.5-8-0.8-11.8-3.6c-3-2.2-5-4.9-6.2-8.1c-1.1-3.1-1.3-6.9-0.5-11.2l7.8,0.8c1.1,0.1,2,1.1,2,2.2
					c0,0,0.1,6.8,2.8,8.8c1.4,1,2.8,1.5,4.4,1.4c1.5-0.1,2.7-0.7,3.5-1.7c0.7-1,1.1-2.2,1.1-3.6c0-1.5-0.4-4.1-1.4-7.9
					c-1.8-7.2-2.6-12.2-2.4-15.3c0.2-3,1-5.5,2.6-7.6c2.2-2.9,5.2-4.6,8.9-5c3.8-0.4,7.3,0.6,10.5,3c2.1,1.6,3.7,3.6,4.9,5.9
					C496,64.3,496.7,67.7,497,71.9z"/>
			</g>
			<g>
				<path d="M510.6,77.5c0.8-0.8,2-0.8,2.8-0.1l4.3,4.1c0.8,0.8,0.8,2,0.1,2.8l-33.5,34.9c-0.8,0.8-2,0.8-2.8,0.1l-4.3-4.1
					c-0.8-0.8-0.8-2-0.1-2.8L510.6,77.5z"/>
			</g>
			<g>
				<path d="M554.1,139.3l-7.8-1.2c-1.1-0.2-2-1.2-2-2.3c0,0,0-9.9-3.6-14.7c-3.1-4.1-7-6.6-11.8-7.4c-4.8-0.8-9.2,0.3-13.1,3.2
					c-4.1,3-6.4,7-7.1,12c-0.7,5,0.6,9.6,3.7,13.9c2.1,2.8,4.4,4.7,6.9,5.7c2.6,1,5.5,1.2,8.9,0.6l-7.8-10.6
					c-0.7-0.9-0.5-2.1,0.4-2.8l4.3-3.2c0.9-0.7,2.1-0.5,2.8,0.4l13.3,18c0.7,0.9,0.8,1.9,0.3,2.3c-0.5,0.4-1.7,1.1-2.6,1.7
					c0,0-6.1,3.4-10.9,3.9c-4.7,0.5-9.1-0.1-13.1-1.8c-4-1.8-7.5-4.7-10.5-8.8c-3.2-4.4-5.2-9-5.8-13.8c-0.6-4.8,0.1-9.6,2.1-14.1
					c2-4.6,5.1-8.4,9.2-11.4c5.6-4.1,11.8-5.9,18.6-5.2c8.1,0.7,14.8,4.6,20,11.6c2.7,3.7,4.6,7.6,5.6,11.8
					C555,130.6,555,134.7,554.1,139.3z"/>
			</g>
			<g>
				<path d="M570.1,154.7c1-0.4,2.2,0,2.6,1.1l2.2,5.1c0.4,1,0.3,2.6-0.3,3.5l-20.8,30.8c-0.6,0.9-0.3,1.3,0.7,0.9l28.1-11.9
					c1-0.4,2.2,0,2.6,1.1l2.3,5.5c0.4,1,0,2.2-1.1,2.6l-44.6,18.9c-1,0.4-2.2,0-2.6-1.1l-2.2-5.2c-0.4-1-0.3-2.6,0.3-3.5l20.7-30.7
					c0.6-0.9,0.3-1.3-0.7-0.9l-28,11.9c-1,0.4-2.2,0-2.6-1.1l-2.3-5.5c-0.4-1,0-2.2,1.1-2.6L570.1,154.7z"/>
			</g>
		</g>
	</g>
	<g>
		<g>
			<g>
				<path d="M105.6,433.3l-7.2-2.5c-1-0.4-1.7-1.5-1.6-2.6c0,0,1.8-10.4-1-15.7c-2.3-4.5-5.7-7.4-10.4-8.9
					c-4.6-1.5-9.2-1.1-13.6,1.2c-3.1,1.6-5.5,3.7-7.2,6.3c-1.7,2.6-2.6,5.5-2.7,8.7c-0.1,3.2,0.6,6.3,2.2,9.3c1.3,2.6,3,4.7,5.1,6.3
					c2.1,1.6,5,3.1,8.9,4.3l-2.5,7.4c-0.4,1-1.5,1.5-2.5,1.1c0,0-7.3-3-10.2-5.4c-2.9-2.4-5.3-5.6-7.3-9.5
					c-3.7-7.3-4.5-14.4-2.2-21.3c2.2-7,6.9-12.3,14.1-16c4.7-2.4,9.3-3.5,14-3.2c4.7,0.2,9.1,1.8,13.4,4.6c4.2,2.8,7.5,6.5,9.8,11
					c2,3.8,3.1,8,3.3,12.4C108,424.9,107.3,429.2,105.6,433.3z"/>
			</g>
			<g>
				<path d="M135.4,453.2c4.9,5.6,7,12.2,6.5,19.7c-0.6,7.6-3.7,13.9-9.6,18.9c-5.8,5-12.4,7.3-19.8,6.8c-7.5-0.5-13.6-3.6-18.6-9.3
					c-5.2-5.9-7.4-12.7-6.7-20.2c0.7-7.5,3.9-13.7,9.5-18.6c3.8-3.3,8.1-5.4,12.8-6.3c4.8-0.9,9.5-0.6,14.1,1
					C128.3,446.8,132.2,449.5,135.4,453.2z M127.9,459.5c-3.2-3.7-7.1-5.6-11.8-5.9c-4.7-0.3-9,1.3-13,4.7
					c-4.4,3.8-6.5,8.4-6.3,13.7c0.1,4.2,1.6,7.8,4.3,11c3.1,3.6,7,5.5,11.8,5.8c4.8,0.3,9-1.2,12.8-4.5c3.8-3.3,5.9-7.3,6.3-12.1
					C132.5,467.3,131.1,463.1,127.9,459.5z"/>
			</g>
			<g>
				<path d="M158.2,480.8c0.7-0.9,1.9-1,2.8-0.3l4.7,3.7c0.9,0.7,1,1.9,0.3,2.8L142,517.5c-0.7,0.9-0.5,2.1,0.3,2.8l8.3,6.5
					c0.9,0.7,1,1.9,0.3,2.8l-3.4,4.3c-0.7,0.9-1.9,1-2.8,0.3l-16.1-12.7c-0.9-0.7-1-1.9-0.3-2.8L158.2,480.8z"/>
			</g>
			<g>
				<path d="M183.5,499.8c0.6-0.9,1.8-1.3,2.7-0.7l5.1,3.1c0.9,0.6,1.3,1.8,0.7,2.7l-19.9,33.4c-0.6,0.9-0.2,2.2,0.7,2.7l9.1,5.4
					c0.9,0.6,1.3,1.8,0.7,2.7l-2.8,4.7c-0.6,0.9-1.8,1.3-2.7,0.7l-17.6-10.5c-0.9-0.6-1.3-1.8-0.7-2.7L183.5,499.8z"/>
			</g>
			<g>
				<path d="M225,521.2c0.7-0.8,2.2-1.2,3.2-0.8l5.7,2.2c1,0.4,1.9,1.6,1.9,2.7l0.2,52.2c0,1.1-0.8,1.7-1.9,1.3l-6-2.3
					c-1-0.4-1.9-1.6-1.9-2.7l0-7.6c0-1.1-0.8-2.3-1.9-2.7l-16.3-6.2c-1-0.4-2.5,0-3.2,0.8l-5.1,5.6c-0.7,0.8-2.2,1.2-3.2,0.8l-6-2.3
					c-1-0.4-1.3-1.4-0.5-2.2L225,521.2z M226.2,536.5c0-1.1-0.6-1.3-1.4-0.5l-10.3,11.4c-0.7,0.8-0.5,1.8,0.5,2.2l9.4,3.6
					c1,0.4,1.9-0.2,1.9-1.3L226.2,536.5z"/>
			</g>
			<g>
				<path d="M254.7,583.3c-1.1-0.2-1.8-1.2-1.6-2.3l8.1-47.8c0.2-1.1,1.2-1.8,2.3-1.6l4.2,0.7c1.1,0.2,2.9,0.5,3.9,0.7
					c0,0,6.2,1.3,8.2,2.3c3,1.3,5.2,3.3,6.6,5.8c1.5,2.5,1.9,5.3,1.4,8.3c-0.3,2-1.1,3.7-2.2,5.1c-1.1,1.5-2.7,2.7-4.8,3.8
					c2.9,2,4.9,4.2,6,6.7c1.1,2.5,1.4,5.2,0.8,8.2c-0.5,2.9-1.7,5.4-3.6,7.6c-1.9,2.1-4.1,3.6-6.7,4.4c-2.6,0.8-5.9,0.8-10.1,0.1
					L254.7,583.3z M268.4,562.4c-1.1-0.2-2.1,0.6-2.3,1.6l-1.6,9.3c-0.2,1.1,0.2,2.1,0.9,2.2c0.7,0.1,2.1,0.3,3.2,0.4
					c0,0,4.9,0.5,6.5-0.3c1.6-0.8,2.6-2.2,2.9-4.1c0.4-2.2-0.2-4.1-1.6-5.7C275,564.2,272.3,563,268.4,562.4L268.4,562.4z
					 M271.7,542.7c-1.1-0.2-2.1,0.6-2.3,1.6l-1.2,7c-0.2,1.1,0.2,2.1,0.7,2.2c0.6,0.1,2,0.2,3.1,0.3c0,0,2.3,0.1,3.6-0.7
					c1.3-0.8,2.1-2.1,2.4-3.8c0.3-1.6-0.1-3-1-4.1c-0.9-1.1-2.5-1.9-4.8-2.3L271.7,542.7z"/>
			</g>
			<g>
				<path d="M326.9,535.7c7.4-0.3,13.9,2.1,19.5,7.2c5.6,5.1,8.5,11.6,8.9,19.3c0.3,7.6-2,14.2-7,19.8c-5,5.5-11.3,8.4-18.8,8.8
					c-7.9,0.3-14.5-2.1-20-7.3c-5.4-5.2-8.3-11.6-8.6-19c-0.2-5,0.8-9.7,3-14c2.2-4.3,5.4-7.8,9.6-10.4
					C317.5,537.3,322,535.9,326.9,535.7z M327.2,545.4c-4.8,0.2-8.9,2.1-12,5.6c-3.2,3.5-4.6,7.9-4.4,13.1
					c0.3,5.8,2.5,10.3,6.8,13.5c3.3,2.5,7.1,3.7,11.3,3.5c4.7-0.2,8.7-2.1,11.9-5.7c3.2-3.6,4.7-7.8,4.4-12.9
					c-0.2-5-2.1-9.1-5.6-12.4C336.2,546.8,332,545.2,327.2,545.4z"/>
			</g>
			<g>
				<path d="M363.4,535.1c-0.3-1.1,0.4-2.2,1.4-2.4l6.4-1.6c1.1-0.3,2.8-0.7,3.9-0.9c0,0,7.8-1.6,10.4-1.2c2.6,0.4,5,1.6,7,3.5
					c2,2,3.5,4.5,4.3,7.7c0.9,3.3,0.8,6.3-0.2,9c-1,2.7-3,5-5.9,7l16.5,18c0.7,0.8,0.5,1.7-0.6,2l-6.7,1.7c-1.1,0.3-2.5-0.2-3.3-1
					l-14.3-15.6c-0.7-0.8-1.5-1.4-1.8-1.4s-0.2,1,0.1,2l4.5,17.6c0.3,1.1-0.4,2.2-1.4,2.4l-5.8,1.5c-1.1,0.3-2.2-0.4-2.4-1.4
					L363.4,535.1z M377.2,548.6c0.3,1.1,1.2,1.8,2,1.5c0.8-0.2,2.4-0.7,3.4-1c0,0,3.2-1.1,4.1-2.2c1-1.1,1.2-2.6,0.7-4.5
					c-0.3-1.1-0.8-2-1.6-2.7c-0.8-0.7-1.7-1.1-2.8-1.2c-1.1-0.1-2.9,0.2-5.4,0.8l-0.7,0.2c-1.1,0.3-1.7,1.4-1.4,2.4L377.2,548.6z"/>
			</g>
			<g>
				<path d="M416.8,517.6c-0.1-1.1,0.7-2.4,1.6-2.9l5.5-2.6c1-0.5,2.5-0.2,3.3,0.5l37.9,35.8c0.8,0.8,0.6,1.8-0.3,2.2l-5.7,2.8
					c-1,0.5-2.5,0.2-3.3-0.5l-5.5-5.2c-0.8-0.8-2.3-1-3.3-0.5l-15.7,7.5c-1,0.5-1.7,1.8-1.7,2.9l0.5,7.6c0.1,1.1-0.7,2.4-1.7,2.9
					l-5.7,2.8c-1,0.5-1.9,0-2-1.1L416.8,517.6z M428.7,527.3c-0.8-0.8-1.4-0.5-1.3,0.6l1.1,15.3c0.1,1.1,1,1.6,2,1.1l9-4.3
					c1-0.5,1.1-1.5,0.3-2.2L428.7,527.3z"/>
			</g>
			<g>
				<path d="M446.1,502.5c-0.6-0.9-0.4-2.2,0.5-2.8l20.3-14.5c0.9-0.6,2.2-0.4,2.8,0.5l3.4,4.8c0.6,0.9,0.4,2.2-0.5,2.8l-4.5,3.2
					c-0.9,0.6-1.1,1.9-0.5,2.8l22.4,31.4c0.6,0.9,0.4,2.2-0.5,2.8l-5,3.6c-0.9,0.6-2.2,0.4-2.8-0.5l-22.4-31.4
					c-0.6-0.9-1.9-1.1-2.8-0.5l-4.3,3.1c-0.9,0.6-2.2,0.4-2.8-0.5L446.1,502.5z"/>
			</g>
			<g>
				<path d="M473.9,481.7c-0.7-0.8-0.6-2.1,0.2-2.8l4.4-3.9c0.8-0.7,2.1-0.6,2.8,0.2l32.1,36.3c0.7,0.8,0.6,2.1-0.2,2.8l-4.4,3.9
					c-0.8,0.7-2.1,0.6-2.8-0.2L473.9,481.7z"/>
			</g>
			<g>
				<path d="M487.3,470.6c-1-0.4-1.3-1.4-0.6-2.2l4-4.8c0.7-0.8,2.1-1.2,3.2-0.8l33.2,12.6c1,0.4,1.4-0.1,0.9-1l-17.8-30.8
					c-0.5-1-0.4-2.4,0.3-3.3l4-4.8c0.7-0.8,1.7-0.7,2.3,0.2l25.8,44.8c0.5,1,0.4,2.4-0.3,3.3l-3.6,4.3c-0.7,0.8-2.1,1.2-3.2,0.8
					L487.3,470.6z"/>
			</g>
			<g>
				<path d="M521,428.6c-1-0.5-1.3-1.8-0.7-2.7l12.3-21.3c0.5-1,1.8-1.3,2.7-0.7l5,2.9c1,0.5,1.3,1.8,0.7,2.7l-7.4,12.7
					c-0.5,1-0.2,2.2,0.7,2.7l4.7,2.7c1,0.5,2.2,0.2,2.7-0.7l7.4-12.7c0.5-1,1.8-1.3,2.7-0.7l4.8,2.8c1,0.5,1.3,1.8,0.7,2.7
					l-7.4,12.7c-0.5,1-0.2,2.2,0.7,2.7l8.5,4.9c1,0.5,2.2,0.2,2.7-0.7l7.4-12.7c0.5-1,1.8-1.3,2.7-0.7l5,2.9c1,0.5,1.3,1.8,0.7,2.7
					l-12.3,21.3c-0.5,1-1.8,1.3-2.7,0.7L521,428.6z"/>
			</g>
		</g>
	</g>
	<g>
		<g>
			<g>
				<g>
					<path d="M297.6,128.4c3.8,0,7.1,0.9,9.9,2.8c2.8,1.9,4.9,4.7,6.4,8.6c1.5,3.9,2.3,9.2,2.3,16.1c0,7-0.8,12.4-2.3,16.3
						c-1.5,3.9-3.6,6.7-6.2,8.5c-2.6,1.8-5.9,2.7-9.8,2.7c-3.9,0-7.3-0.9-9.9-2.7c-2.7-1.8-4.8-4.6-6.3-8.3c-1.5-3.7-2.3-9-2.3-15.9
						c0-9.6,1.5-16.6,4.5-20.9C287.1,130.7,291.7,128.4,297.6,128.4z M297.8,137.9c-1.7,0-3.2,0.5-4.5,1.6c-1.3,1.1-2.3,2.9-3,5.6
						c-0.7,2.6-1,6.5-1,11.6c0,6.6,0.8,11.2,2.4,13.7c1.6,2.5,3.6,3.8,6.1,3.8c2.4,0,4.3-1.2,5.8-3.6c1.7-2.9,2.6-7.7,2.6-14.5
						c0-6.9-0.8-11.6-2.3-14.3C302.3,139.2,300.3,137.9,297.8,137.9z"/>
				</g>
				<g>
					<path d="M329.9,131.6c0.2-1.1,1.3-2,2.4-2h20.6c1.1,0,2,0.9,2,2v5.2c0,1.1-0.9,2-2,2h-13.1c-1.1,0-2.2,0.9-2.4,2l-1.3,5.6
						c-0.2,1.1,0.1,1.8,0.7,1.7c0,0,0,0,0.6-0.1c0.6-0.1,1.1-0.1,1.6-0.1c4.8,0,8.7,1.6,11.9,4.9c3.1,3.2,4.7,7.4,4.7,12.5
						c0,5.1-1.7,9.4-5.2,12.9c-3.5,3.5-7.7,5.3-12.7,5.3c-4.5,0-8.3-1.3-11.5-3.8c-3.2-2.5-5.3-6-6.3-10.4h8.5
						c1.1,0,2.5,0.8,3.1,1.7c0,0,0.8,1.2,2.1,2c1.3,0.8,2.8,1.3,4.4,1.3c2.2,0,4.1-0.8,5.6-2.4c1.5-1.6,2.3-3.6,2.3-6.1
						c0-2.4-0.7-4.4-2.2-6c-1.4-1.6-3.2-2.3-5.2-2.3c-1.1,0-2.2,0.3-3.2,0.8c-1.1,0.5-2.1,1.4-3.1,2.5l-6.2-1.4
						c-1.1-0.2-1.8-1.3-1.5-2.4L329.9,131.6z"/>
				</g>
			</g>
		</g>
		<circle cx="385.5" cy="155.7" r="7"/>
		<circle cx="252.9" cy="155.7" r="7"/>
	</g>
	<g>
		<g>
			<g>
				<g>
					<path d="M297.6,412.2c3.8,0,7.1,0.9,9.9,2.8c2.8,1.9,4.9,4.7,6.4,8.6c1.5,3.9,2.3,9.2,2.3,16.1c0,7-0.8,12.4-2.3,16.3
						c-1.5,3.9-3.6,6.7-6.2,8.5c-2.6,1.8-5.9,2.7-9.8,2.7c-3.9,0-7.3-0.9-9.9-2.7c-2.7-1.8-4.8-4.6-6.3-8.3c-1.5-3.7-2.3-9-2.3-15.9
						c0-9.6,1.5-16.6,4.5-20.9C287.1,414.5,291.7,412.2,297.6,412.2z M297.8,421.6c-1.7,0-3.2,0.5-4.5,1.6c-1.3,1.1-2.3,2.9-3,5.6
						s-1,6.5-1,11.6c0,6.6,0.8,11.2,2.4,13.7c1.6,2.5,3.6,3.8,6.1,3.8c2.4,0,4.3-1.2,5.8-3.6c1.7-2.9,2.6-7.7,2.6-14.5
						c0-6.9-0.8-11.6-2.3-14.3C302.3,422.9,300.3,421.6,297.8,421.6z"/>
				</g>
				<g>
					<path d="M322.6,415.5c0-1.1,0.9-2,2-2h30.4c1.1,0,2,0.9,2,2v1.2c0,1.1-0.4,2.8-0.9,3.8l-21.9,44.9c-0.5,1-1.7,1.4-2.7,0.9
						l-4.8-2.3c-1-0.5-1.4-1.7-0.9-2.7l17.9-36.7c0.5-1,0-1.8-1.1-1.8h-18c-1.1,0-2-0.9-2-2V415.5z"/>
				</g>
			</g>
		</g>
		<circle cx="385.5" cy="438.8" r="7"/>
		<circle cx="252.9" cy="438.8" r="7"/>
	</g>
</g>
</svg>
