<?xml version="1.0" encoding="utf-8"?>
<!-- Generator: Adobe Illustrator 17.1.0, SVG Export Plug-In . SVG Version: 6.00 Build 0)  -->
<!DOCTYPE svg PUBLIC "-//W3C//DTD SVG 1.1//EN" "http://www.w3.org/Graphics/SVG/1.1/DTD/svg11.dtd">
<svg version="1.1" id="Layer_1" xmlns="http://www.w3.org/2000/svg" xmlns:xlink="http://www.w3.org/1999/xlink" x="0px" y="0px"
	 viewBox="0 0 173.9 276.1" enable-background="new 0 0 173.9 276.1" xml:space="preserve">
<g>
	<path d="M82.3,274.6l-0.1-0.9c-0.4-2.4-1-5-1.7-7.7c-1.1-4-2.5-8.4-4-12.8c-2.7-7.5-5.9-15.4-9.1-22.6c-3.2-7.2-6.4-13.8-8.9-18.9
		c-2.5-5.1-4.4-8.8-5.1-10.1c-0.2-0.3-0.3-0.5-0.3-0.5c-0.7-1.2-0.6-2.7,0.1-4c0.2-0.3,0.4-0.6,0.7-0.9c0.7-0.7,1.7-1.2,2.7-1.2h0
		l0.3,0h0c1,0,3.7,0.1,7.8,1.4c3.4,1.1,7.9,2.9,13.1,6.1l0-36.9l-22.1-23.2c-0.7-0.8-1.1-1.7-1.1-2.8l0-15c0-1.1,0.4-2.1,1.2-2.9
		l0.2-0.2c1.6-1.5,4.1-1.4,5.7,0.1l0,0c0,0,0,0,0,0l16,16.8v-2.1l-22.1-23.1l0,0c-0.7-0.8-1.1-1.8-1.1-2.8l0-15
		c0-1.1,0.4-2.1,1.2-2.9l0.2-0.2c0.8-0.7,1.9-1.1,2.9-1.1c1,0,2,0.4,2.8,1.2l0.1,0.1l16,16.8l0-4.2L55.6,82
		c-0.7-0.8-1.1-1.8-1.1-2.8l0-15c0-1.1,0.4-2.1,1.2-2.9l0.2-0.2c0.8-0.8,1.9-1.1,2.9-1.1c1,0,2.1,0.4,2.8,1.2l0.1,0.1L86,86.9
		l24.4-25.6l0.1-0.1c0.8-0.8,1.8-1.2,2.8-1.2c1,0,2.1,0.3,2.9,1.1l0.3,0.3l0,0l0.1,0.1c0.8,0.8,1.2,1.8,1.2,2.9l0,14.5
		c0,1.1-0.4,2.1-1.1,2.8l0,0l-22.1,23.1v4.2l15.8-16.6l0.1-0.1c0.8-0.8,1.8-1.2,2.9-1.2c1,0,2.1,0.4,2.9,1.1l0,0l0.3,0.3l0.1,0.1
		c0.8,0.8,1.2,1.8,1.2,2.9l0,14.5c0,1.1-0.4,2.1-1.2,2.8l-22.1,23.1v2.1l15.8-16.6l0.1-0.1c1.6-1.6,4.1-1.6,5.7-0.1l0,0l0.3,0.3
		l0.1,0.1c0.8,0.8,1.2,1.8,1.2,2.9l0,14.5l0,0l0,0l0,0c0,1.1-0.4,2.1-1.1,2.8l-22.1,23.1l0,36.6c5.1-3.3,9.6-5.4,13.1-6.6
		c5-1.8,8.4-1.9,9.4-1.9h0.1l0.3,0c1,0,2,0.5,2.7,1.2c0.2,0.2,0.5,0.5,0.7,0.9c0.7,1.2,0.7,2.7,0.1,4l0,0l0,0c0,0-0.1,0.1-0.1,0.2
		l0,0l0,0c-0.1,0.1-0.2,0.4-0.5,0.8c-0.4,0.8-1,1.9-1.7,3.3c-0.7,1.4-1.6,3.2-2.6,5.1c-1,2-2.1,4.2-3.2,6.6
		c-4.6,9.6-10.4,22.4-14.8,34.5v0c-2,5.4-3.7,10.7-4.9,15.6l0,0c-0.5,2-0.9,3.9-1.2,5.6l-0.2,1c-0.1,0.5-0.2,1-0.3,1.5l-0.1,1
		l-0.9,0.5c-2.3,1.2-5,1.1-7.2-0.2L82.3,274.6z"/>
	<g>
		<g>
			<g>
				<path d="M31.3,102.3c0.5,1.1,0.1,2.6-0.9,3.3l-12.8,9.6c-0.9,0.7-0.8,1.2,0.4,1l15.8-2.3c1.2-0.2,2.5,0.6,3,1.7l0.8,2
					c0.5,1.1,0.1,2.6-0.9,3.3l-19.9,15.9c-0.9,0.7-2.1,0.5-2.5-0.6l-1-2.3c-0.5-1.1,0-2.6,0.9-3.3L28,120.5c1-0.7,0.8-1.1-0.4-1
					l-17,2.3c-1.2,0.2-2.5-0.6-3-1.7l-0.2-0.4c-0.5-1.1-0.1-2.6,0.9-3.3L22,106.1c0.9-0.7,0.8-1.2-0.4-1l-16.8,2.7
					c-1.2,0.2-2.5-0.6-3-1.7l-1-2.4c-0.5-1.1,0.1-2.1,1.3-2.2l25.3-3c1.2-0.1,2.5,0.6,3,1.7L31.3,102.3z"/>
			</g>
			<g>
				<path d="M32.3,67.1c-0.2,1.2-1.4,1.9-2.5,1.7l-7.6-1.5c-1.2-0.2-2.3,0.5-2.5,1.7L18,78.1c-0.2,1.2,0.5,2.3,1.7,2.5l7.6,1.5
					c1.2,0.2,1.9,1.4,1.7,2.5l-0.3,1.8c-0.2,1.2-1.4,1.9-2.5,1.7L2.2,83.4c-1.2-0.2-1.9-1.4-1.7-2.5l0.3-1.8C1,78,2.2,77.2,3.3,77.4
					l6.8,1.3c1.2,0.2,2.3-0.5,2.5-1.7l1.8-9.1c0.2-1.2-0.5-2.3-1.7-2.5l-6.8-1.3c-1.2-0.2-1.9-1.4-1.7-2.5l0.3-1.8
					c0.2-1.2,1.4-1.9,2.5-1.7L31,62.7c1.2,0.2,1.9,1.4,1.7,2.5L32.3,67.1z"/>
			</g>
			<g>
				<path d="M23.6,50.2c-6.5-5.8-6.9-14.6-1.1-21c5.8-6.5,14.6-7.1,21.1-1.3c6.5,5.7,6.9,14.6,1.1,21.1C38.8,55.3,30,55.9,23.6,50.2
					z M39.3,32.5c-4-3.6-9.3-3.7-12.8,0.3c-3.5,3.9-2.8,9.2,1.3,12.8c4,3.5,9.3,3.7,12.8-0.2C44.1,41.3,43.3,36,39.3,32.5z"/>
			</g>
			<g>
				<path d="M92.4,29.1c-1.2,0-2.4-0.9-2.8-2l-4.5-15.4c-0.3-1.1-0.8-1.1-1.1,0l-3.4,15.6c-0.3,1.2-1.4,2.1-2.6,2.2l-2.2,0.1
					c-1.2,0-2.5-0.9-2.8-2L65.3,3.4c-0.4-1.1,0.3-2.1,1.5-2.1l2.5-0.1c1.2,0,2.4,0.9,2.7,2l4.6,16.4c0.3,1.1,0.8,1.1,1.1,0l3.8-16.7
					c0.3-1.2,1.5-2.1,2.6-2.2l0.5,0c1.2,0,2.4,0.9,2.8,2L92.2,19c0.3,1.1,0.8,1.1,1.1,0l3.4-16.6c0.2-1.2,1.4-2.1,2.6-2.2l2.6-0.1
					c1.2,0,1.9,0.9,1.6,2l-6.2,24.7C97,28,95.8,29,94.6,29L92.4,29.1z"/>
			</g>
			<g>
				<path d="M108.4,32.8c-1-0.6-1.4-1.9-0.8-2.9l11.9-21.3c0.6-1,1.9-1.4,2.9-0.8l14,7.8c1,0.6,1.4,1.9,0.8,2.9l-0.5,0.9
					c-0.6,1-1.9,1.4-2.9,0.8l-8.6-4.8c-1-0.6-2.4-0.2-2.9,0.8l-0.8,1.5c-0.6,1-0.2,2.4,0.8,2.9l8.4,4.7c1,0.6,1.4,1.9,0.8,2.9
					l-0.5,0.9c-0.6,1-1.9,1.4-2.9,0.8l-8.4-4.7c-1-0.6-2.4-0.2-2.9,0.8l-1.1,1.9c-0.6,1-0.2,2.4,0.8,2.9l8.6,4.8
					c1,0.6,1.4,1.9,0.8,2.9l-0.5,0.9c-0.6,1-1.9,1.4-2.9,0.8L108.4,32.8z"/>
			</g>
			<g>
				<path d="M144.1,74c-0.5-1.1-0.1-2.7,0.8-3.5l0.6-0.6c0.9-0.8,1.2-2.4,0.8-3.5l-3.1-7.4c-0.5-1.1-1.8-2-3-1.9l-0.9,0
					c-1.2,0-2.5-0.8-3-1.9l-1-2.4c-0.5-1.1,0.1-2,1.3-2l26.4-0.6c1.2,0,2.5,0.8,3,1.9l1.3,3.1c0.5,1.1,0.1,2.7-0.7,3.5L147.5,77
					c-0.9,0.8-1.9,0.6-2.4-0.5L144.1,74z M159.5,57.5c0.9-0.8,0.6-1.4-0.6-1.4l-8.8,0.4c-1.2,0.1-1.8,1-1.3,2.1l1.8,4.3
					c0.5,1.1,1.5,1.3,2.4,0.5L159.5,57.5z"/>
			</g>
			<g>
				<path d="M143.8,99.1c0.1-1.2,1.1-2.5,2.2-3l6.7-3c1.1-0.5,2.1-1.8,2.2-3l0-0.2c0.1-1.2-0.8-2.2-2-2.3l-5.9-0.5
					c-1.2-0.1-2.1-1.2-2-2.3l0.2-1.8c0.1-1.2,1.2-2.1,2.3-2l24.3,2.1c1.2,0.1,2.1,1.2,2,2.3l-0.8,9.1c-0.1,1.2-0.6,3-1.2,4.1
					c0,0-3.7,7.3-9.1,6.9c-5.1-0.4-7.5-3.8-7.9-7l-9.5,4.6c-1.1,0.5-1.9,0-1.8-1.2L143.8,99.1z M163.3,99.2c2.4,0.2,4-1.5,4.2-4
					l0.4-4.2c0.1-1.2-0.8-2.2-2-2.3l-3.4-0.3c-1.2-0.1-2.2,0.8-2.3,2l-0.4,4.2C159.6,97.1,160.9,99,163.3,99.2z"/>
			</g>
			<g>
				<path d="M140.5,109.6c0.6-1,1.9-1.4,3-0.7l20.9,12.5c1,0.6,1.4,1.9,0.7,3l-8.2,13.7c-0.6,1-1.9,1.4-3,0.7l-0.9-0.5
					c-1-0.6-1.4-1.9-0.7-3l5.1-8.5c0.6-1,0.3-2.4-0.7-3l-1.5-0.9c-1-0.6-2.4-0.3-3,0.7l-4.9,8.2c-0.6,1-1.9,1.4-3,0.7l-0.9-0.5
					c-1-0.6-1.4-1.9-0.7-3l4.9-8.2c0.6-1,0.3-2.4-0.7-3l-1.9-1.1c-1-0.6-2.4-0.3-3,0.7l-5.1,8.5c-0.6,1-1.9,1.4-3,0.7l-0.9-0.5
					c-1-0.6-1.4-1.9-0.7-3L140.5,109.6z"/>
			</g>
		</g>
	</g>
</g>
</svg>
