<?xml version="1.0" encoding="utf-8"?>
<!-- Generator: Adobe Illustrator 17.1.0, SVG Export Plug-In . SVG Version: 6.00 Build 0)  -->
<!DOCTYPE svg PUBLIC "-//W3C//DTD SVG 1.1//EN" "http://www.w3.org/Graphics/SVG/1.1/DTD/svg11.dtd">
<svg version="1.1" id="Layer_1" xmlns="http://www.w3.org/2000/svg" xmlns:xlink="http://www.w3.org/1999/xlink" x="0px" y="0px"
	 viewBox="0 0 49.2 49.2" enable-background="new 0 0 49.2 49.2" xml:space="preserve">
<g>
	<g>
		<path d="M25.7,24.7c0.2-0.1,0.4-0.1,0.6-0.2c-0.4-0.9-0.8-1.7-1.2-2.6c-7.9,2.4-15.4,2.2-15.7,2.2c0,0.2,0,0.3,0,0.5
			c0,3.9,1.5,7.5,3.9,10.2c0,0,0,0,0,0S17.4,27.4,25.7,24.7z"/>
		<path d="M23.8,19.6c-2.6-4.7-5.5-8.5-5.7-8.8c-4.3,2-7.4,5.9-8.4,10.7C10.1,21.5,16.5,21.6,23.8,19.6z"/>
		<path d="M34.7,13.2c-2.7-2.4-6.2-3.8-10.1-3.8c-1.2,0-2.4,0.2-3.6,0.4c0.2,0.3,3.1,4.1,5.7,8.9C32.5,16.5,34.7,13.2,34.7,13.2z"/>
		<path d="M21,9.8C21,9.8,20.9,9.8,21,9.8C20.9,9.8,21,9.8,21,9.8L21,9.8z"/>
		<path d="M15.2,36.7L15.2,36.7c-0.1-0.1-0.2-0.2-0.3-0.3C15.1,36.6,15.2,36.7,15.2,36.7z"/>
		<path d="M27.9,21c0.4,0.7,0.7,1.5,1,2.2c0.1,0.3,0.2,0.5,0.3,0.8c5.2-0.7,10.4,0.5,10.6,0.5c0-3.6-1.3-6.9-3.5-9.5
			C36.4,15,33.9,18.5,27.9,21z"/>
		<path d="M27.2,27.1c-9,3.1-11.9,9.5-12,9.5c2.6,2,5.8,3.2,9.4,3.2c2.1,0,4.1-0.4,6-1.2c-0.2-1.3-1.1-6-3.3-11.6
			C27.3,27.1,27.3,27.1,27.2,27.1z"/>
		<path d="M24.6,0C11,0,0,11,0,24.6c0,13.6,11,24.6,24.6,24.6s24.6-11,24.6-24.6C49.2,11,38.2,0,24.6,0z M41.1,31.6
			c-0.4,1.1-1,2.1-1.6,3c-0.6,0.9-1.4,1.8-2.2,2.6c-0.8,0.8-1.7,1.5-2.6,2.2c-1,0.6-2,1.2-3,1.6c-1.1,0.5-2.2,0.8-3.4,1
			c-1.2,0.2-2.4,0.4-3.6,0.4c-1.2,0-2.4-0.1-3.6-0.4c-1.1-0.2-2.3-0.6-3.4-1c-1.1-0.4-2.1-1-3-1.6c-0.9-0.6-1.8-1.4-2.6-2.2
			c-0.8-0.8-1.5-1.7-2.2-2.6c-0.6-1-1.2-2-1.6-3c-0.5-1.1-0.8-2.2-1-3.4c-0.2-1.2-0.4-2.4-0.4-3.6c0-1.2,0.1-2.4,0.4-3.6
			c0.2-1.2,0.6-2.3,1-3.4c0.4-1.1,1-2.1,1.6-3c0.6-0.9,1.4-1.8,2.2-2.6c0.8-0.8,1.7-1.5,2.6-2.2c1-0.6,2-1.2,3-1.7
			c1.1-0.5,2.2-0.8,3.4-1c1.2-0.2,2.4-0.4,3.6-0.4c1.2,0,2.4,0.1,3.6,0.4c1.1,0.2,2.3,0.6,3.4,1c1.1,0.4,2.1,1,3,1.7
			c0.9,0.6,1.8,1.4,2.6,2.2c0.8,0.8,1.5,1.7,2.2,2.6c0.6,1,1.2,2,1.6,3c0.5,1.1,0.8,2.2,1,3.4c0.2,1.2,0.4,2.4,0.4,3.6
			c0,1.2-0.1,2.4-0.4,3.6C41.9,29.4,41.5,30.5,41.1,31.6z"/>
		<path d="M30.2,26.4c2,5.5,2.8,10,3,10.9c3.4-2.3,5.9-6,6.5-10.2C39.4,26.9,35.1,25.6,30.2,26.4z"/>
	</g>
</g>
<path d="M-63.4,0C-77,0-88,11-88,24.6c0,13.6,11,24.6,24.6,24.6c13.6,0,24.6-11,24.6-24.6C-38.8,11-49.8,0-63.4,0z M-56.9,24.5h-4.3
	c0,6.8,0,15.2,0,15.2h-6.3c0,0,0-8.3,0-15.2h-3v-5.4h3v-3.5c0-2.5,1.2-6.4,6.4-6.4l4.7,0v5.2c0,0-2.8,0-3.4,0
	c-0.6,0-1.3,0.3-1.3,1.5v3.2h4.8L-56.9,24.5z"/>
<g>
	<g>
		<path d="M-239.4,0c-13.6,0-24.6,11-24.6,24.6c0,13.6,11,24.6,24.6,24.6c13.6,0,24.6-11,24.6-24.6C-214.8,11-225.8,0-239.4,0z
			 M-225.7,36.6c0,1.1-0.9,2-2,2h-23.4c-1.1,0-2-0.9-2-2V12.9c0-1.1,0.9-2,2-2h23.4c1.1,0,2,0.9,2,2V36.6z"/>
		<path d="M-234.7,21.3c-2.2,0-3.2,1.2-3.7,2.1v0h0c0,0,0,0,0,0v-1.8h-4.1c0.1,1.2,0,12.5,0,12.5h4.1v-7c0-0.4,0-0.7,0.1-1
			c0.3-0.7,1-1.5,2.1-1.5c1.5,0,2.1,1.1,2.1,2.8v6.7h4.2v-7.2C-229.9,23.1-232,21.3-234.7,21.3z"/>
		<path d="M-246.9,15.6c-1.4,0-2.3,0.9-2.3,2.2c0,1.2,0.9,2.2,2.3,2.2h0c1.4,0,2.3-1,2.3-2.2C-244.6,16.5-245.5,15.6-246.9,15.6z"/>
		<rect x="-249" y="21.6" width="4.2" height="12.5"/>
	</g>
</g>
<g>
	<g>
		<path d="M-141.7,22.2c-3.2,0-3.6,3.2-3.6,3.2h6.7C-138.6,25.3-138.6,22.2-141.7,22.2z"/>
		<path d="M-157,25.3h-6v5.5h5.3c0.1,0,0.2,0,0.4,0c0.9,0,2.5-0.3,2.5-2.7C-154.9,25.3-157,25.3-157,25.3z"/>
		<path d="M-151.4,0C-165,0-176,11-176,24.6s11,24.6,24.6,24.6c13.6,0,24.6-11,24.6-24.6S-137.8,0-151.4,0z M-146.2,15.1h8.5v2.5
			h-8.5V15.1z M-150.5,28.4c0,6.3-6.5,6.1-6.5,6.1h-6h-0.2h-4.5V13.9h4.5h0.2h6c3.2,0,5.8,1.8,5.8,5.5c0,3.7-3.1,3.9-3.1,3.9
			C-150.2,23.3-150.5,28.4-150.5,28.4z M-134.7,28.1h-10.6c0,3.8,3.6,3.6,3.6,3.6c3.4,0,3.3-2.2,3.3-2.2h3.6c0,5.9-7,5.5-7,5.5
			c-8.4,0-7.9-7.9-7.9-7.9s0-7.9,7.9-7.9C-133.5,19.1-134.7,28.1-134.7,28.1z"/>
		<path d="M-155.6,19.7c0-2.1-1.5-2.1-1.5-2.1h-0.8h-5.2v4.6h5.6C-156.4,22.2-155.6,21.8-155.6,19.7z"/>
	</g>
</g>
<g>
	<g>
		<path d="M130.3,41.7l-1.8,1.6C129.2,42.8,129.8,42.3,130.3,41.7z"/>
		<path d="M137.2,20h-5.7h-8.8c1.2,3,1.2,5.9,0,8.7c-2.4,5.7-8.8,8.3-14.6,6c-5.5-2.3-8.2-8.8-5.9-14.5c0,0,0-0.2,0-0.2H91.8h-3.7
			c-0.2,2-0.3,2.8-0.3,4.1c0,5,1.5,9.8,4,13.7c1.5,2.3,3.4,4.4,5.6,6.1c4.2,3.3,9.5,5.2,15.2,5.2c6.1,0,11.6-2.2,15.9-5.7
			c0,0,0,0,0,0l1.8-1.6c0,0,0,0,0.1-0.1c4.4-4.5,7.1-10.8,7.1-17.5C137.5,22.8,137.4,22,137.2,20z"/>
		<path d="M104.6,16c0.1,0,0.3,0.1,0.4,0c4.4-3.8,10.2-3.6,14.7,0.2c0.3,0.2,0.5,0.8,0.9,0.8h0.1h10.8h4.9c-1.2-4-3.2-7.1-5.8-9.8
			l-2.1-2c-4.3-3.6-9.8-5.7-15.8-5.7c-5.7,0-11,1.9-15.2,5.2c-2.2,1.7-4.1,3.5-5.6,5.8C90.6,12.3,89.7,14,89,16h3H104.6z
			 M126.6,13.1c0,0.8-0.4,1.2-1.2,1.3c-1.7,0-3.4,0-5.1,0c-0.8,0-1.2-0.5-1.2-1.2c0-0.8,0-1.7,0-2.5c0-0.8,0-1.6,0-2.4
			c0-0.8,0.4-1.3,1.2-1.3c1.7,0,3.3,0,5,0c0.8,0,1.2,0.4,1.2,1.2C126.6,9.8,126.6,11.4,126.6,13.1z"/>
		<path d="M112.5,15.7c-4.9-0.1-9,4-9,8.9c0,4.8,4,8.8,8.8,8.8c5,0,8.9-3.9,8.9-8.8C121.3,19.7,117.4,15.7,112.5,15.7z"/>
	</g>
</g>
</svg>
