<?xml version="1.0" encoding="utf-8"?>
<!-- Generator: Adobe Illustrator 16.2.1, SVG Export Plug-In . SVG Version: 6.00 Build 0)  -->
<!DOCTYPE svg PUBLIC "-//W3C//DTD SVG 1.1//EN" "http://www.w3.org/Graphics/SVG/1.1/DTD/svg11.dtd">
<svg version="1.1" id="Layer_1" xmlns="http://www.w3.org/2000/svg" xmlns:xlink="http://www.w3.org/1999/xlink" x="0px" y="0px"
	 width="1207.66px" height="275.523px" viewBox="0 0 1207.66 275.523" enable-background="new 0 0 1207.66 275.523"
	 xml:space="preserve">
<g>
	<defs>
		<rect id="SVGID_1_" width="1207.664" height="275.523"/>
	</defs>
	<clipPath id="SVGID_2_">
		<use xlink:href="#SVGID_1_"  overflow="visible"/>
	</clipPath>
	<path clip-path="url(#SVGID_2_)" fill="#FFFFFF" d="M29.176,123.86c-0.001-22.8-4.516-92.611,33.167-92.89
		c15.787-0.116,21.291,12.615,25.27,25.648c0.346,1.132,0.161,2.365-0.484,3.357c-2.059,3.165-3.647,5.724-5.331,8.597
		c-1.743,2.974-6.213,2.527-7.279-0.752c-2.384-7.333-5.855-14.535-12.165-14.826c-18.506-0.851-19.526,55.597-19.525,69.852
		c0.002,12.075-1.408,68.66,19.563,67.032c5.069-0.393,10.427-7.453,13.045-14.643c0.16-0.438,0.233-0.893,0.233-1.357
		c-0.003-7.917-0.005-20.463-0.007-30.289c-0.001-2.385-2.066-4.243-4.439-3.996c-2.665,0.278-4.922,0.512-7.588,0.789
		c-2.372,0.246-4.436-1.62-4.436-4.005c-0.003-9.48-0.006-13.711-0.008-23.447c-0.001-2.123,1.649-3.881,3.767-4.015
		c7.23-0.456,14.46-0.914,21.689-1.374c2.316-0.148,4.275,1.689,4.276,4.01c0.011,24.676,0.02,49.354,0.035,74.029
		c0,0.565-0.119,1.131-0.349,1.647c-5.574,12.499-11.63,22.7-26.207,24.92C24.54,217.914,29.177,144.018,29.176,123.86"/>
	<path clip-path="url(#SVGID_2_)" fill="#FFFFFF" d="M99.538,200.799C99.472,145.821,99.505,90.84,99.437,35.86
		c-0.003-2.08,1.682-3.768,3.763-3.768c12.191,0,24.383,0,36.574-0.001c2.077,0,3.761,1.679,3.765,3.756
		c0.007,3.686,0.012,7.887,0.019,14.722c0.002,2.059-1.65,3.745-3.708,3.776c-7.805,0.118-15.61,0.235-23.416,0.351
		c-2.058,0.031-3.709,1.708-3.708,3.767c0.009,10.982,0.015,21.964,0.022,32.946c0.001,2.158,1.813,3.874,3.968,3.758
		c7.421-0.4,14.841-0.802,22.261-1.205c2.155-0.117,3.967,1.597,3.968,3.756c0.009,10.73,0.017,21.46,0.025,32.19
		c0.001,1.942-1.473,3.566-3.405,3.752c-7.794,0.751-15.588,1.499-23.383,2.244c-1.932,0.184-3.407,1.807-3.405,3.75
		c0.007,12.085,0.014,24.17,0.023,36.256c0.002,2.282,2.02,4.041,4.283,3.729c7.435-1.026,14.87-2.057,22.304-3.09
		c2.261-0.315,4.279,1.443,4.281,3.726c0.007,6.905,0.013,11.1,0.02,14.896c0.003,1.861-1.354,3.446-3.194,3.729
		c-12.204,1.883-24.41,3.758-36.617,5.623C101.597,204.87,99.541,203.105,99.538,200.799"/>
	<path clip-path="url(#SVGID_2_)" fill="#FFFFFF" d="M168.464,190.487c-0.093-44.345-0.091-88.688-0.138-133.031
		c-0.002-1.949-1.602-3.519-3.55-3.489c-4.041,0.062-7.089,0.108-11.131,0.17c-1.948,0.029-3.547-1.548-3.549-3.497
		c-0.008-7.039-0.013-11.287-0.02-15.052c-0.004-1.931,1.561-3.496,3.493-3.496c14.24-0.001,28.48-0.002,42.72-0.003
		c1.926,0,3.489,1.556,3.493,3.482c0.009,3.667,0.016,7.732,0.025,14.402c0.003,1.91-1.53,3.475-3.44,3.505
		c-4.089,0.064-7.149,0.111-11.239,0.175c-1.909,0.029-3.441,1.586-3.439,3.495c0.05,44.111,0.049,88.221,0.148,132.332
		c0.004,1.723-1.252,3.19-2.955,3.457c-2.305,0.36-4.19,0.654-6.381,0.995C170.385,194.261,168.469,192.627,168.464,190.487"/>
	<path clip-path="url(#SVGID_2_)" fill="#FFFFFF" d="M229.311,108.5c-0.053-22.348-1.504-77.326,33.051-77.529
		c14.802-0.087,22.765,12.204,25.821,25.393c0.203,0.876-0.034,1.8-0.612,2.49c-2.752,3.286-4.685,5.712-7.028,8.82
		c-1.425,1.89-4.382,1.36-5.086-0.9c-2.403-7.724-5.833-16.152-13.05-16.42c-17.748-0.659-19.499,43.46-19.452,57.066
		c0.042,12.427,2.306,57.072,19.608,54.036c7.519-1.319,10.796-10.666,13.189-19.117c0.627-2.214,3.457-2.85,4.972-1.12
		c2.266,2.586,4.159,4.622,6.795,7.306c0.685,0.696,0.989,1.698,0.773,2.651c-3.134,13.821-10.767,27.284-25.684,29.772
		C227.887,186.739,229.358,128.386,229.311,108.5"/>
	<path clip-path="url(#SVGID_2_)" fill="#FFFFFF" d="M293.504,103.391c-0.031-21.622-0.753-72.449,32.386-72.42
		c31.836,0.028,32.7,45.637,32.734,67.175c0.037,23.954-1.049,67.025-32.478,72.601
		C292.705,176.679,293.532,122.898,293.504,103.391 M344.984,99.249c-0.019-13.129-1.544-50.095-19.047-49.793
		c-17.94,0.31-18.814,39.271-18.792,52.84c0.019,11.841,1.334,52.545,18.954,49.87C343.749,149.486,345.006,114.087,344.984,99.249"
		/>
	<path clip-path="url(#SVGID_2_)" fill="#FFFFFF" d="M410.106,153.291c-7.416-19.4-15.57-40.563-22.549-61.037
		c-1.19-3.49-6.342-2.635-6.337,1.052c0.029,21.503,0.056,43.006,0.119,64.509c0.005,1.601-1.153,2.966-2.733,3.222
		c-2.456,0.399-4.418,0.718-6.751,1.097c-1.978,0.32-3.777-1.203-3.783-3.207c-0.119-41.198-0.1-82.396-0.222-123.595
		c-0.005-1.801,1.452-3.264,3.253-3.264c2.963,0,6.089-0.001,8.126-0.001c1.357,0,2.567,0.834,3.044,2.104
		c2.969,7.901,13.683,36.529,21.866,59.956c1.209,3.464,6.334,2.586,6.329-1.082c-0.027-19.24-0.053-38.48-0.108-57.72
		c-0.006-1.801,1.456-3.264,3.258-3.264c2.393,0,4.353-0.001,6.747-0.001c1.795,0,3.256,1.443,3.262,3.238
		c0.104,36.788,0.195,101.501,0.215,115.611c0.002,1.599-1.149,2.955-2.726,3.212c-2.005,0.327-4.825,0.787-7.45,1.215
		C412.143,155.583,410.659,154.733,410.106,153.291"/>
	<path clip-path="url(#SVGID_2_)" fill="#FFFFFF" d="M478.134,142.459c-8.081-17.873-15.884-36.968-22.735-55.684
		c-1.208-3.3-6.088-2.432-6.083,1.081c0.027,19.657,0.053,39.313,0.107,58.969c0.005,1.542-1.113,2.857-2.633,3.105
		c-2.55,0.417-4.56,0.745-6.983,1.14c-1.907,0.312-3.643-1.157-3.648-3.091c-0.103-37.592-0.099-75.185-0.204-112.778
		c-0.005-1.737,1.399-3.146,3.135-3.146c3.075-0.001,6.344-0.002,8.402-0.002c1.272,0,2.409,0.76,2.894,1.935
		c3.002,7.283,13.856,33.711,22.106,55.13c1.252,3.249,6.072,2.346,6.067-1.136c-0.024-17.596-0.048-35.193-0.095-52.79
		c-0.004-1.735,1.405-3.145,3.141-3.145c2.486,0,4.494-0.001,6.982-0.001c1.731-0.001,3.14,1.392,3.144,3.123
		c0.085,33.324,0.167,91.603,0.185,104.714c0.002,1.539-1.106,2.851-2.625,3.099c-2.071,0.339-5.055,0.827-7.789,1.275
		C480.101,144.487,478.719,143.753,478.134,142.459"/>
	<path clip-path="url(#SVGID_2_)" fill="#FFFFFF" d="M504.232,136.867c-0.082-33.897-0.09-67.795-0.173-101.693
		c-0.005-1.728,1.394-3.13,3.122-3.13c12.617-0.003,25.233-0.005,37.85-0.007c1.723-0.001,3.121,1.396,3.125,3.119
		c0.007,2.831,0.012,5.505,0.018,9.43c0.003,1.707-1.365,3.107-3.072,3.136c-8.224,0.139-16.448,0.278-24.673,0.417
		c-1.707,0.028-3.075,1.426-3.072,3.133c0.011,6.074,0.018,10.72,0.029,17.879c0.002,1.795,1.513,3.224,3.306,3.12
		c7.855-0.456,15.711-0.912,23.567-1.368c1.792-0.104,3.304,1.327,3.306,3.122c0.008,5.86,0.014,10.011,0.022,16.002
		c0.003,1.605-1.212,2.951-2.808,3.114c-8.181,0.831-16.361,1.663-24.541,2.495c-1.597,0.162-2.811,1.511-2.809,3.116
		c0.012,8.026,0.02,13.14,0.031,19.745c0.003,1.903,1.694,3.368,3.578,3.092c7.891-1.157,15.781-2.313,23.672-3.468
		c1.884-0.276,3.575,1.187,3.578,3.091c0.007,3.879,0.012,6.54,0.018,9.451c0.004,1.533-1.106,2.845-2.62,3.092
		c-12.607,2.063-25.215,4.127-37.823,6.19C505.964,140.256,504.237,138.792,504.232,136.867"/>
	<path clip-path="url(#SVGID_2_)" fill="#FFFFFF" d="M555.605,82.089c-0.033-20.793,5.421-50.875,33.085-51.118
		c11.537-0.101,20.917,6.873,25.324,17.223c0.485,1.141,0.133,2.471-0.857,3.218c-2.604,1.967-4.507,3.461-6.915,5.434
		c-1.369,1.121-3.402,0.63-4.163-0.968c-2.965-6.23-7.929-10.418-13.363-10.26c-16.995,0.495-19.496,23.854-19.475,35.357
		c0.019,10.378,2.392,34.671,19.565,32.198c5.624-0.81,10.635-5.877,13.541-12.902c0.642-1.552,2.531-2.143,3.944-1.236
		c2.311,1.485,4.154,2.613,6.597,4.037c1.155,0.673,1.648,2.096,1.15,3.336c-4.401,10.962-13.27,19.495-25.207,21.454
		C561.008,132.429,555.637,101.887,555.605,82.089"/>
	<path clip-path="url(#SVGID_2_)" fill="#FFFFFF" d="M637.184,115.206c-0.032-21.971-0.051-43.942-0.075-65.913
		c-0.002-1.715-1.412-3.096-3.128-3.068c-4.394,0.074-7.574,0.127-11.969,0.201c-1.715,0.029-3.125-1.355-3.128-3.07
		c-0.004-3.301-0.008-5.662-0.012-8.253c-0.003-1.698,1.373-3.079,3.071-3.08c14.52-0.002,29.039-0.005,43.559-0.007
		c1.695,0,3.07,1.375,3.072,3.07c0.003,2.44,0.005,4.606,0.008,7.536c0.002,1.678-1.348,3.048-3.024,3.076
		c-4.439,0.074-7.628,0.127-12.065,0.201c-1.678,0.028-3.027,1.397-3.026,3.075c0.023,21.684,0.04,43.368,0.069,65.052
		c0.002,1.508-1.093,2.794-2.581,3.036c-2.638,0.429-4.697,0.764-7.204,1.172C638.882,118.538,637.187,117.098,637.184,115.206"/>
	<path clip-path="url(#SVGID_2_)" fill="#FFFFFF" d="M677.14,108.678c-0.024-24.519-0.042-49.038-0.068-73.557
		c-0.001-1.716,1.39-3.108,3.105-3.108c12.629-0.002,25.258-0.004,37.887-0.005c1.714-0.001,3.104,1.392,3.106,3.106
		c0.001,2.214,0.002,4.137,0.004,6.604c0.001,1.696-1.359,3.083-3.054,3.111c-8.239,0.135-16.478,0.271-24.716,0.407
		c-1.695,0.028-3.055,1.416-3.054,3.113c0.003,3.787,0.006,6.752,0.009,10.828c0.001,1.784,1.501,3.2,3.282,3.098
		c7.87-0.451,15.739-0.901,23.608-1.35c1.781-0.101,3.281,1.319,3.283,3.103c0.002,3.029,0.003,5.419,0.005,8.525
		c0.001,1.595-1.208,2.935-2.795,3.094c-8.191,0.821-16.382,1.644-24.571,2.467c-1.588,0.16-2.797,1.503-2.795,3.099
		c0.003,4.647,0.006,7.919,0.009,12.063c0.002,1.891,1.679,3.342,3.55,3.071c7.906-1.146,15.812-2.291,23.719-3.433
		c1.872-0.271,3.55,1.182,3.551,3.073c0.002,2.394,0.003,4.304,0.004,6.565c0.001,1.524-1.105,2.826-2.61,3.069
		c-12.62,2.036-25.239,4.075-37.858,6.119C678.854,112.045,677.142,110.589,677.14,108.678"/>
	<path clip-path="url(#SVGID_2_)" fill="#FFFFFF" d="M731.568,100.347c-0.012-21.875-0.021-43.75-0.033-65.625
		c-0.001-1.5,1.218-2.716,2.718-2.717c8.104,0,12.974-0.001,21.853-0.002c17.982-0.23,33.15,12.768,33.074,31.201
		c-0.077,18.822-14.876,33.564-33.053,36.388c-8.716,1.395-13.563,2.173-21.405,3.434
		C733.071,103.292,731.569,102.018,731.568,100.347 M775.637,64.281c0.159-11.161-7.896-20.548-19.527-20.071
		c-3.539,0.057-5.692,0.092-8.63,0.14c-1.483,0.024-2.673,1.233-2.672,2.716c0.005,12.933,0.01,25.865,0.015,38.797
		c0.001,1.653,1.471,2.922,3.106,2.686c2.721-0.391,4.833-0.695,8.194-1.177C767.617,85.671,775.476,75.599,775.637,64.281"/>
	<path clip-path="url(#SVGID_2_)" fill="#FFFFFF" d="M409.733,233.557c1.519-2.145,2.648-3.756,4.109-5.878
		c0.766-1.113,2.33-1.343,3.358-0.466c4.107,3.504,9.856,6.236,16.847,6.174c6.879-0.062,10.676-4.055,10.222-7.199
		c-1.874-12.955-34.542-2.853-33.853-24.717c0.375-11.911,11.306-19.618,22.241-21.052c8.365-1.098,15.574-0.035,21.192,3.829
		c1.011,0.694,1.264,2.089,0.601,3.122c-1.643,2.557-2.839,4.454-4.441,7.005c-0.693,1.102-2.174,1.424-3.24,0.675
		c-4.492-3.152-10.006-4.012-15.243-3.326c-5.372,0.703-9.126,4.768-8.357,7.213c3.141,9.979,33.873,2.781,33.802,25.305
		c-0.041,13.081-11.219,20.527-23.526,20.307c-10.106-0.181-17.916-3.209-23.358-7.929
		C409.198,235.848,409.053,234.518,409.733,233.557"/>
	<path clip-path="url(#SVGID_2_)" fill="#FFFFFF" d="M477.9,240.637c-0.007-16.893-0.013-33.783-0.02-50.676
		c-0.001-1.74-1.534-3.083-3.26-2.854c-3.909,0.518-6.826,0.902-10.729,1.416c-1.725,0.227-3.256-1.119-3.258-2.858
		c-0.003-2.12-0.005-3.83-0.007-5.845c-0.002-1.433,1.05-2.65,2.469-2.854c13.792-1.98,27.579-3.987,41.364-6.021
		c1.741-0.257,3.302,1.096,3.298,2.855c-0.004,2.012-0.008,3.879-0.013,6.36c-0.002,1.44-1.073,2.663-2.5,2.855
		c-4.54,0.612-7.668,1.032-12.201,1.639c-1.43,0.192-2.503,1.412-2.504,2.854c-0.007,17.71-0.013,35.421-0.021,53.131
		c-0.001,1.591-1.293,2.88-2.884,2.88c-2.449-0.001-4.402-0.002-6.852-0.002C479.192,243.516,477.901,242.227,477.9,240.637"/>
	<path clip-path="url(#SVGID_2_)" fill="#FFFFFF" d="M549.864,241.465c-0.782-2.276-1.377-4.242-2.178-7.083
		c-0.374-1.328-1.601-2.245-2.981-2.23c-7.89,0.091-12.767,0.145-20.683,0.233c-1.325,0.014-2.498,0.888-2.89,2.152
		c-0.862,2.782-1.497,4.695-2.339,6.983c-0.443,1.202-1.589,2.005-2.87,2.005c-2.935-0.001-5.163-0.001-7.795-0.002
		c-2.105-0.001-3.59-2.086-2.876-4.067c8.26-22.923,13.275-46.921,20.939-70.049c0.362-1.093,1.321-1.889,2.459-2.059
		c4.372-0.655,7.292-1.094,11.544-1.735c1.422-0.214,2.816,0.589,3.319,1.938c8.707,23.354,12.809,48.239,20.132,72.056
		c0.601,1.953-0.882,3.927-2.925,3.927c-2.713,0-4.972-0.001-7.965-0.001C551.45,243.533,550.288,242.699,549.864,241.465
		 M531.712,192.157c-1.83,7.177-3.599,14.37-5.418,21.55c-0.502,1.982,1.048,3.888,3.091,3.798
		c3.787-0.164,6.753-0.295,10.601-0.465c1.918-0.084,3.286-1.897,2.835-3.764c-1.7-7.045-3.391-14.093-5.192-21.112
		C536.844,189.104,532.492,189.096,531.712,192.157"/>
	<path clip-path="url(#SVGID_2_)" fill="#FFFFFF" d="M580.892,240.711c0.129-9.99,0.216-19.981,0.308-29.973
		c0.003-0.362-0.065-0.721-0.2-1.058c-5.861-14.612-11.311-29.916-19.823-43.279c-1.086-1.705-0.074-3.96,1.925-4.265
		c2.801-0.428,5.138-0.786,8.307-1.273c1.101-0.169,2.214,0.324,2.799,1.271c4.405,7.123,7.671,14.688,10.791,22.396
		c0.954,2.357,4.309,2.304,5.199-0.079c3.471-9.284,7.069-18.544,11.847-27.24c0.417-0.759,1.174-1.277,2.029-1.411
		c2.879-0.45,5.059-0.791,7.437-1.165c2.289-0.359,3.975,2.054,2.88,4.096c-8.511,15.883-14.055,33.524-20.416,50.277
		c-0.116,0.305-0.176,0.626-0.18,0.951c-0.109,10.275-0.211,20.551-0.367,30.825c-0.023,1.526-1.273,2.751-2.799,2.751
		c-2.494,0-4.462,0-6.946,0C582.126,243.536,580.872,242.266,580.892,240.711"/>
	<path clip-path="url(#SVGID_2_)" fill="#FFFFFF" d="M641.952,196.654c0.323-21.553,7.133-48.149,32.677-53.016
		c11.307-2.153,20.947,3.916,24.085,14.877c0.198,0.696-0.02,1.448-0.532,1.959c-3.103,3.087-5.135,5.172-7.912,8.071
		c-1.033,1.077-2.834,0.703-3.363-0.693c-2.645-6.99-7.387-10.948-12.686-10.072c-15.706,2.6-19.614,25.281-19.289,37.826
		c0.29,11.204,1.461,34.721,17.872,34.8c5.362,0.026,10.383-4.815,13.298-12.652c0.497-1.333,2.204-1.723,3.258-0.767
		c2.557,2.318,4.454,4.01,7.258,6.433c0.612,0.528,0.872,1.38,0.618,2.148c-3.688,11.146-12.778,19.128-24.84,18.981
		C646.435,244.232,641.658,216.278,641.952,196.654"/>
	<path clip-path="url(#SVGID_2_)" fill="#FFFFFF" d="M703.028,191.659c0.405-22.298,5.048-53.202,32.526-58.069
		c29.769-5.272,29.855,33.858,29.427,52.844c-0.479,21.163-3.063,58.021-32.605,58.115
		C704.687,244.638,702.67,211.334,703.028,191.659 M752.008,187.541c0.263-10.876-0.181-41.053-17.033-38.948
		c-16.339,2.041-18.696,29.374-18.967,41.985c-0.252,11.789,1.536,39.275,16.949,38.968
		C749.04,229.224,751.7,200.33,752.008,187.541"/>
	<path clip-path="url(#SVGID_2_)" fill="#FFFFFF" d="M812.312,242.552c-7.4-22.403-15.737-47.688-22.707-71.272
		c-0.459-1.553-2.74-1.252-2.778,0.366c-0.555,23.512-0.916,47.055-2.179,70.535c-0.04,0.753-0.672,1.345-1.427,1.345
		c-3.673,0-6.04,0.001-9.68,0.002c-0.811,0-1.461-0.677-1.42-1.485c1.918-37.697,1.558-75.485,3.502-113.182
		c0.034-0.664,0.524-1.216,1.18-1.329c3.845-0.656,8.6-1.471,10.762-1.842c0.68-0.116,1.338,0.269,1.569,0.918
		c2.396,6.73,15.005,42.345,22.058,66.012c0.461,1.547,2.736,1.239,2.775-0.374c0.565-23.466,0.928-46.973,2.296-70.399
		c0.038-0.659,0.528-1.205,1.178-1.318c3.773-0.656,6.167-1.074,9.782-1.706c0.9-0.157,1.718,0.56,1.665,1.473
		c-2.28,38.924-3.903,110.981-4.14,121.837c-0.017,0.771-0.639,1.385-1.408,1.385c-2.12,0-6.288,0.001-9.685,0.002
		C813.044,243.519,812.504,243.133,812.312,242.552"/>
	<path clip-path="url(#SVGID_2_)" fill="#FFFFFF" d="M876.537,242.101c-6.901-23.762-14.686-49.716-21.231-74.277
		c-0.581-2.181-3.782-1.799-3.835,0.458c-0.577,24.467-0.965,48.979-2.467,73.395c-0.063,1.029-0.926,1.834-1.957,1.835
		c-3.21,0.001-5.453,0.001-8.619,0.002c-1.121,0-2.009-0.942-1.943-2.062c2.416-41.104,1.712-82.355,4.174-123.458
		c0.055-0.903,0.719-1.651,1.61-1.808c3.47-0.611,7.565-1.334,9.806-1.73c0.965-0.17,1.896,0.397,2.191,1.33
		c2.511,7.933,13.618,43.233,20.506,68.556c0.591,2.173,3.783,1.784,3.835-0.468c0.564-24.359,0.941-48.771,2.504-73.072
		c0.058-0.898,0.731-1.642,1.616-1.801c3.279-0.587,5.53-0.991,8.621-1.547c1.245-0.224,2.377,0.772,2.298,2.035
		c-2.638,42.161-4.307,119.061-4.578,132.105c-0.021,1.062-0.88,1.904-1.941,1.905c-2.13,0-5.68,0.001-8.723,0.002
		C877.535,243.501,876.778,242.934,876.537,242.101"/>
	<path clip-path="url(#SVGID_2_)" fill="#FFFFFF" d="M900.934,239.269c2.612-43.693,1.665-87.562,4.36-131.251
		c0.113-1.831,1.468-3.348,3.272-3.675c11.195-2.033,22.389-4.077,33.58-6.131c2.534-0.464,4.834,1.555,4.695,4.127
		c-0.152,2.835-0.288,6.211-0.467,11.157c-0.068,1.897-1.465,3.489-3.338,3.797c-7.554,1.242-15.108,2.479-22.665,3.711
		c-1.877,0.306-3.278,1.895-3.343,3.796c-0.29,8.503-0.539,17.007-0.782,25.512c-0.068,2.43,2.036,4.357,4.45,4.073
		c6.45-0.757,12.898-1.519,19.347-2.281c2.41-0.285,4.513,1.632,4.448,4.06c-0.232,8.87-0.464,17.74-0.696,26.611
		c-0.054,2.053-1.657,3.729-3.705,3.871c-7.094,0.497-14.187,0.991-21.28,1.483c-2.045,0.142-3.647,1.812-3.703,3.861
		c-0.261,9.429-0.534,18.856-0.855,28.282c-0.078,2.283,1.772,4.162,4.057,4.117c6.898-0.137,13.799-0.275,20.698-0.414
		c2.288-0.046,4.144,1.847,4.061,4.134c-0.189,5.229-0.333,8.645-0.508,11.617c-0.124,2.107-1.866,3.753-3.977,3.753
		c-11.227,0.005-22.454,0.009-33.681,0.012C902.607,243.493,900.796,241.56,900.934,239.269"/>
	<path clip-path="url(#SVGID_2_)" fill="#FFFFFF" d="M951.692,169.791c0.611-24.855,1.471-73.701,33.668-80.567
		c14.119-3.011,20.767,8.983,22.92,21.076c0.263,1.48-0.065,3.007-0.904,4.255c-0.975,1.452-1.847,2.766-2.678,4.036
		c-2.565,3.924-8.504,3.343-10.224-1.019c-2.642-6.695-6.294-10.162-10.002-9.273c-19.242,4.616-19.537,44.773-19.924,60.301
		c-0.312,12.496,0.419,58.095,16.838,56.874c5.559-0.413,8.843-6.211,11.126-12.662c1.571-4.441,7.481-5.269,10.196-1.418
		c0.577,0.818,1.178,1.659,1.824,2.556c1.062,1.474,1.374,3.363,0.841,5.1c-3.904,12.728-9.468,25.522-24.876,25.5
		C947.942,244.5,951.194,190.02,951.692,169.791"/>
	<path clip-path="url(#SVGID_2_)" fill="#FFFFFF" d="M1026.506,238.859c2.21-43.512,2.04-87.204,3.047-130.759
		c0.063-2.741-2.383-4.858-5.086-4.4c-2.266,0.384-4.281,0.725-6.549,1.109c-2.717,0.459-5.175-1.688-5.089-4.442
		c0.169-5.461,0.3-8.998,0.463-12.06c0.107-2.003,1.569-3.67,3.541-4.044c12.471-2.367,24.939-4.752,37.403-7.155
		c2.754-0.531,5.286,1.631,5.182,4.434c-0.116,3.145-0.219,6.988-0.355,12.676c-0.05,2.085-1.569,3.851-3.625,4.204
		c-3.513,0.602-6.235,1.068-9.755,1.668c-2.06,0.352-3.59,2.117-3.637,4.207c-1.006,44.965-0.792,90.065-2.964,134.992
		c-0.112,2.324-2.039,4.151-4.366,4.152c-1.328,0.001-2.551,0.001-3.858,0.002C1028.36,243.444,1026.379,241.353,1026.506,238.859"
		/>
	<path clip-path="url(#SVGID_2_)" fill="#FFFFFF" d="M1064.209,238.512c2.137-53.378,0.94-106.868,3.15-160.244
		c0.092-2.186,1.678-4.023,3.825-4.44c10.358-2.011,20.713-4.035,31.066-6.072c2.961-0.582,5.7,1.717,5.631,4.734
		c-0.074,3.218-0.143,7.182-0.229,12.987c-0.033,2.27-1.677,4.203-3.913,4.593c-6.915,1.206-13.833,2.408-20.75,3.605
		c-2.23,0.386-3.875,2.301-3.917,4.564c-0.198,10.553-0.363,21.106-0.525,31.659c-0.043,2.869,2.46,5.115,5.307,4.761
		c5.753-0.714,11.505-1.431,17.258-2.149c2.838-0.355,5.336,1.874,5.306,4.734c-0.119,11.035-0.236,22.07-0.354,33.105
		c-0.027,2.454-1.928,4.479-4.376,4.66c-6.506,0.481-13.012,0.961-19.518,1.439c-2.44,0.179-4.338,2.19-4.375,4.637
		c-0.177,11.7-0.355,23.4-0.572,35.101c-0.05,2.682,2.138,4.865,4.819,4.809c6.379-0.139,12.758-0.275,19.137-0.414
		c2.676-0.059,4.865,2.125,4.824,4.8c-0.092,6.102-0.162,10.105-0.245,13.424c-0.065,2.562-2.157,4.604-4.719,4.604
		c-10.706,0.006-21.411,0.011-32.117,0.016C1066.237,243.425,1064.102,241.193,1064.209,238.512"/>
	<path clip-path="url(#SVGID_2_)" fill="#FFFFFF" d="M1115.547,237.45c1.299-56.002,0.516-112.045,1.861-168.045
		c0.064-2.724,2.022-5.04,4.695-5.569c6.202-1.23,10.519-2.09,17.787-3.542c36.304-8.792,29.89,71.709,29.898,88.587
		c0.011,21.664,6.674,95.354-31.203,94.508c-7.067,0.004-11.442,0.006-17.228,0.009
		C1118.093,243.4,1115.471,240.714,1115.547,237.45 M1157.29,150.117c0.034-10.87,3.617-66.905-17.206-66.368
		c-0.289,0.008-0.588,0.046-0.873,0.097c-2.031,0.358-3.566,0.629-5.148,0.908c-2.762,0.487-4.784,2.873-4.811,5.676
		c-0.385,41.188-0.578,82.377-0.958,123.564c-0.03,3.282,2.657,5.938,5.938,5.865c1.225-0.027,2.494-0.055,4.048-0.089
		c0.361-0.008,0.732-0.04,1.087-0.116C1160.558,215.125,1157.245,164.241,1157.29,150.117"/>
	<path clip-path="url(#SVGID_2_)" fill="#FFFFFF" d="M380.688,200.082v32.751H138.387L380.688,200.082z M386.688,193.216
		L49.205,238.833h337.483V193.216z"/>
	<path clip-path="url(#SVGID_2_)" fill="#FFFFFF" d="M1059.404,38.582L817.104,71.333V38.582H1059.404z M1148.586,32.582H811.104
		v45.617L1148.586,32.582z"/>
	<path clip-path="url(#SVGID_2_)" fill="#FFFFFF" d="M1170.607,269.523v-6H37.056c-6.938-0.003-13.164-2.795-17.717-7.339
		c-4.544-4.553-7.336-10.779-7.339-17.717V37.056c0.003-6.938,2.795-13.164,7.339-17.717c4.553-4.544,10.779-7.336,17.717-7.339
		h1133.552c6.938,0.003,13.164,2.795,17.717,7.339c4.545,4.553,7.337,10.779,7.34,17.717v201.411
		c-0.003,6.938-2.795,13.164-7.34,17.717c-4.553,4.544-10.778,7.336-17.717,7.339V269.523v6
		c10.215,0.003,19.517-4.157,26.203-10.854c6.696-6.688,10.856-15.989,10.854-26.202V37.056
		c0.003-10.214-4.157-19.516-10.854-26.202c-6.687-6.697-15.988-10.857-26.203-10.854H37.056
		C26.843-0.003,17.54,4.157,10.854,10.854C4.157,17.54-0.003,26.842,0,37.056v201.411c-0.003,10.213,4.157,19.515,10.854,26.202
		c6.687,6.696,15.988,10.856,26.202,10.854h1133.552V269.523z"/>
</g>
</svg>
