<?xml version="1.0" encoding="utf-8"?>
<!-- Generator: Adobe Illustrator 17.1.0, SVG Export Plug-In . SVG Version: 6.00 Build 0)  -->
<!DOCTYPE svg PUBLIC "-//W3C//DTD SVG 1.1//EN" "http://www.w3.org/Graphics/SVG/1.1/DTD/svg11.dtd">
<svg version="1.1" id="Layer_1" xmlns="http://www.w3.org/2000/svg" xmlns:xlink="http://www.w3.org/1999/xlink" x="0px" y="0px"
	 viewBox="0 0 49.7 49.6" enable-background="new 0 0 49.7 49.6" xml:space="preserve">
<g>
	<g>
		<path d="M-62.1,25.3c0.2-0.1,0.4-0.1,0.6-0.2c-0.4-0.9-0.8-1.7-1.2-2.6c-7.9,2.4-15.4,2.2-15.7,2.2c0,0.2,0,0.3,0,0.5
			c0,3.9,1.5,7.5,3.9,10.2c0,0,0,0,0,0S-70.4,27.9-62.1,25.3z"/>
		<path d="M-64,20.1c-2.6-4.7-5.5-8.5-5.7-8.8c-4.3,2-7.4,5.9-8.4,10.7C-77.7,22-71.4,22.1-64,20.1z"/>
		<path d="M-53.1,13.7c-2.7-2.4-6.2-3.8-10.1-3.8c-1.2,0-2.4,0.2-3.6,0.4c0.2,0.3,3.1,4.1,5.7,8.9C-55.3,17.1-53.1,13.8-53.1,13.7z"
			/>
		<path d="M-66.8,10.3C-66.9,10.3-66.9,10.3-66.8,10.3C-66.9,10.3-66.8,10.3-66.8,10.3L-66.8,10.3z"/>
		<path d="M-72.6,37.2L-72.6,37.2c-0.1-0.1-0.2-0.2-0.3-0.3C-72.7,37.1-72.6,37.2-72.6,37.2z"/>
		<path d="M-59.9,21.5c0.4,0.7,0.7,1.5,1,2.2c0.1,0.3,0.2,0.5,0.3,0.8c5.2-0.7,10.4,0.5,10.6,0.5c0-3.6-1.3-6.9-3.5-9.5
			C-51.4,15.5-53.9,19-59.9,21.5z"/>
		<path d="M-60.6,27.7c-9,3.1-11.9,9.5-12,9.5c2.6,2,5.8,3.2,9.4,3.2c2.1,0,4.1-0.4,6-1.2c-0.2-1.3-1.1-6-3.3-11.6
			C-60.5,27.6-60.6,27.6-60.6,27.7z"/>
		<path d="M-63.2,0.5c-13.6,0-24.6,11-24.6,24.6c0,13.6,11,24.6,24.6,24.6s24.6-11,24.6-24.6C-38.6,11.6-49.6,0.5-63.2,0.5z
			 M-46.7,32.1c-0.4,1.1-1,2.1-1.6,3c-0.6,0.9-1.4,1.8-2.2,2.6c-0.8,0.8-1.7,1.5-2.6,2.2c-1,0.6-2,1.2-3,1.6c-1.1,0.5-2.2,0.8-3.4,1
			c-1.2,0.2-2.4,0.4-3.6,0.4c-1.2,0-2.4-0.1-3.6-0.4c-1.1-0.2-2.3-0.6-3.4-1c-1.1-0.4-2.1-1-3-1.6c-0.9-0.6-1.8-1.4-2.6-2.2
			c-0.8-0.8-1.5-1.7-2.2-2.6c-0.6-1-1.2-2-1.6-3c-0.5-1.1-0.8-2.2-1-3.4c-0.2-1.2-0.4-2.4-0.4-3.6c0-1.2,0.1-2.4,0.4-3.6
			c0.2-1.2,0.6-2.3,1-3.4c0.4-1.1,1-2.1,1.6-3c0.6-0.9,1.4-1.8,2.2-2.6c0.8-0.8,1.7-1.5,2.6-2.2c1-0.6,2-1.2,3-1.7
			c1.1-0.5,2.2-0.8,3.4-1c1.2-0.2,2.4-0.4,3.6-0.4c1.2,0,2.4,0.1,3.6,0.4c1.1,0.2,2.3,0.6,3.4,1c1.1,0.4,2.1,1,3,1.7
			c0.9,0.6,1.8,1.4,2.6,2.2c0.8,0.8,1.5,1.7,2.2,2.6c0.6,1,1.2,2,1.6,3c0.5,1.1,0.8,2.2,1,3.4c0.2,1.2,0.4,2.4,0.4,3.6
			c0,1.2-0.1,2.4-0.4,3.6C-45.9,29.9-46.3,31-46.7,32.1z"/>
		<path d="M-57.6,26.9c2,5.5,2.8,10,3,10.9c3.4-2.3,5.9-6,6.5-10.2C-48.4,27.5-52.7,26.1-57.6,26.9z"/>
	</g>
</g>
<path d="M-151.2,0.5c-13.6,0-24.6,11-24.6,24.6c0,13.6,11,24.6,24.6,24.6c13.6,0,24.6-11,24.6-24.6C-126.6,11.6-137.6,0.5-151.2,0.5
	z M-144.7,25.1h-4.3c0,6.8,0,15.2,0,15.2h-6.3c0,0,0-8.3,0-15.2h-3v-5.4h3v-3.5c0-2.5,1.2-6.4,6.4-6.4l4.7,0v5.2c0,0-2.8,0-3.4,0
	c-0.6,0-1.3,0.3-1.3,1.5v3.2h4.8L-144.7,25.1z"/>
<g>
	<g>
		<path d="M-327.3,0.5c-13.6,0-24.6,11-24.6,24.6c0,13.6,11,24.6,24.6,24.6c13.6,0,24.6-11,24.6-24.6
			C-302.6,11.6-313.7,0.5-327.3,0.5z M-313.5,37.1c0,1.1-0.9,2-2,2H-339c-1.1,0-2-0.9-2-2V13.4c0-1.1,0.9-2,2-2h23.4
			c1.1,0,2,0.9,2,2V37.1z"/>
		<path d="M-322.5,21.8c-2.2,0-3.2,1.2-3.7,2.1v0h0c0,0,0,0,0,0v-1.8h-4.1c0.1,1.2,0,12.5,0,12.5h4.1v-7c0-0.4,0-0.7,0.1-1
			c0.3-0.7,1-1.5,2.1-1.5c1.5,0,2.1,1.1,2.1,2.8v6.7h4.2v-7.2C-317.7,23.6-319.8,21.8-322.5,21.8z"/>
		<path d="M-334.7,16.1c-1.4,0-2.3,0.9-2.3,2.2c0,1.2,0.9,2.2,2.3,2.2h0c1.4,0,2.3-1,2.3-2.2C-332.4,17-333.3,16.1-334.7,16.1z"/>
		<rect x="-336.8" y="22.1" width="4.2" height="12.5"/>
	</g>
</g>
<g>
	<g>
		<path d="M-229.5,22.7c-3.2,0-3.6,3.2-3.6,3.2h6.7C-226.4,25.9-226.4,22.7-229.5,22.7z"/>
		<path d="M-244.9,25.9h-6v5.5h5.3c0.1,0,0.2,0,0.4,0c0.9,0,2.5-0.3,2.5-2.7C-242.7,25.8-244.9,25.9-244.9,25.9z"/>
		<path d="M-239.2,0.5c-13.6,0-24.6,11-24.6,24.6s11,24.6,24.6,24.6c13.6,0,24.6-11,24.6-24.6S-225.6,0.5-239.2,0.5z M-234,15.7h8.5
			v2.5h-8.5V15.7z M-238.3,28.9c0,6.3-6.5,6.1-6.5,6.1h-6h-0.2h-4.5V14.5h4.5h0.2h6c3.2,0,5.8,1.8,5.8,5.5c0,3.7-3.1,3.9-3.1,3.9
			C-238,23.8-238.3,28.9-238.3,28.9z M-222.5,28.6h-10.6c0,3.8,3.6,3.6,3.6,3.6c3.4,0,3.3-2.2,3.3-2.2h3.6c0,5.9-7,5.5-7,5.5
			c-8.4,0-7.9-7.9-7.9-7.9s0-7.9,7.9-7.9C-221.3,19.7-222.5,28.6-222.5,28.6z"/>
		<path d="M-243.4,20.2c0-2.1-1.5-2.1-1.5-2.1h-0.8h-5.2v4.6h5.6C-244.3,22.7-243.4,22.4-243.4,20.2z"/>
	</g>
</g>
<g>
	<g>
		<path d="M42.5,42.2l-1.8,1.6C41.4,43.3,42,42.8,42.5,42.2z"/>
		<path d="M49.3,20.5h-5.7h-8.8c1.2,3,1.2,5.9,0,8.7c-2.4,5.7-8.8,8.3-14.6,6c-5.5-2.3-8.2-8.8-5.9-14.5c0,0,0-0.2,0-0.2H4H0.3
			c-0.2,2-0.3,2.8-0.3,4.1c0,5,1.5,9.8,4,13.7c1.5,2.3,3.4,4.4,5.6,6.1c4.2,3.3,9.5,5.2,15.2,5.2c6.1,0,11.6-2.2,15.9-5.7
			c0,0,0,0,0,0l1.8-1.6c0,0,0,0,0.1-0.1c4.4-4.5,7.1-10.8,7.1-17.5C49.7,23.3,49.6,22.5,49.3,20.5z"/>
		<path d="M16.8,16.5c0.1,0,0.3,0.1,0.4,0c4.4-3.8,10.2-3.6,14.7,0.2c0.3,0.2,0.5,0.8,0.9,0.8h0.1h10.8h4.9c-1.2-4-3.2-7.1-5.8-9.8
			l-2.1-2C36.4,2.2,30.8,0,24.8,0c-5.7,0-11,1.9-15.2,5.2C7.4,6.9,5.5,8.6,4,11c-1.2,1.8-2.1,3.5-2.8,5.5h3H16.8z M38.8,13.6
			c0,0.8-0.4,1.2-1.2,1.3c-1.7,0-3.4,0-5.1,0c-0.8,0-1.2-0.5-1.2-1.2c0-0.8,0-1.7,0-2.5c0-0.8,0-1.6,0-2.4c0-0.8,0.4-1.3,1.2-1.3
			c1.7,0,3.3,0,5,0c0.8,0,1.2,0.4,1.2,1.2C38.8,10.3,38.8,12,38.8,13.6z"/>
		<path d="M24.7,16.2c-4.9-0.1-9,4-9,8.9c0,4.8,4,8.8,8.8,8.8c5,0,8.9-3.9,8.9-8.8C33.5,20.2,29.6,16.3,24.7,16.2z"/>
	</g>
</g>
</svg>
