<?xml version="1.0" encoding="utf-8"?>
<!-- Generator: Adobe Illustrator 16.2.1, SVG Export Plug-In . SVG Version: 6.00 Build 0)  -->
<!DOCTYPE svg PUBLIC "-//W3C//DTD SVG 1.1//EN" "http://www.w3.org/Graphics/SVG/1.1/DTD/svg11.dtd">
<svg version="1.1" id="Layer_1" xmlns="http://www.w3.org/2000/svg" xmlns:xlink="http://www.w3.org/1999/xlink" x="0px" y="0px"
	 width="598.574px" height="180.624px" viewBox="0 0 598.574 180.624" enable-background="new 0 0 598.574 180.624"
	 xml:space="preserve">
<g>
	<defs>
		<rect id="SVGID_1_" width="598.574" height="180.624"/>
	</defs>
	<clipPath id="SVGID_2_">
		<use xlink:href="#SVGID_1_"  overflow="visible"/>
	</clipPath>
	<path clip-path="url(#SVGID_2_)" d="M156.866,73.958c-2.372,10.758-4.753,21.514-7.142,32.269
		c-0.263,1.187-1.939,1.236-2.273,0.068c-2.477-8.664-4.945-17.332-7.402-26.002c-0.177-0.622-0.828-0.982-1.45-0.805
		c-2.251,0.64-3.747,1.031-6.1,1.593c-0.425,0.101-0.759,0.432-0.864,0.856c-2.569,10.352-5.154,20.699-7.756,31.041
		c-0.297,1.182-1.98,1.182-2.278,0.001c-2.333-9.253-4.655-18.508-6.966-27.765c-0.14-0.563-0.675-0.938-1.252-0.881
		c-3.386,0.332-5.533,0.457-8.791,0.484c-0.777,0.006-1.336,0.75-1.122,1.496c4.253,14.789,8.562,29.561,12.923,44.318
		c0.163,0.551,0.706,0.903,1.276,0.831c3.442-0.433,5.539-0.785,9.051-1.497c0.446-0.091,0.801-0.432,0.907-0.875
		c2.359-9.82,4.708-19.644,7.048-29.467c0.281-1.18,1.943-1.207,2.264-0.038c2.261,8.237,4.535,16.473,6.819,24.706
		c0.178,0.639,0.857,1.003,1.49,0.802c3.391-1.078,5.488-1.809,9.033-3.121c0.36-0.134,0.637-0.437,0.733-0.809
		c4.299-16.714,8.574-33.435,12.824-50.161c0.239-0.939-0.705-1.744-1.597-1.366c-3.069,1.3-5.218,2.167-8.645,3.479
		C157.228,73.257,156.951,73.574,156.866,73.958"/>
	<path clip-path="url(#SVGID_2_)" d="M169.492,92.085c-0.351,14.616,13.258,19.034,24.84,13.042
		c13.374-6.92,24.492-21.6,24.911-37.009c0.403-14.848-13.663-18.041-24.911-12.24C181.141,62.68,169.86,76.759,169.492,92.085
		 M194.333,64.871c8.732-4.327,14.56-0.418,14.489,8.432c-0.075,9.457-6.036,18.622-14.489,22.829
		c-8.707,4.337-14.473,0.071-14.418-8.724C179.972,77.972,185.911,69.043,194.333,64.871"/>
	<path clip-path="url(#SVGID_2_)" d="M255.587,56.79c5.366-4.069,8.83-10.426,9.051-17.125c0.299-9.06-8.397-13.008-15.988-9.085
		c-7.193,3.068-14.296,6.344-21.335,9.751c-0.572,0.277-0.935,0.857-0.935,1.492c0,14.645,0.001,29.29,0,43.935
		c0,1.218,1.275,2.016,2.373,1.487c2.369-1.141,4.167-1.992,6.802-3.215c0.583-0.271,0.961-0.859,0.961-1.503
		c0-5.737-0.001-9.064-0.001-14.8c0-0.645,0.379-1.234,0.965-1.504c1.972-0.911,3.319-1.522,5.239-2.373
		c0.712-0.315,1.55-0.089,2.009,0.54c2.989,4.093,4.805,6.603,7.801,10.801c0.444,0.622,1.265,0.86,1.973,0.574
		c3.187-1.289,5.312-2.11,8.312-3.189c1.045-0.376,1.432-1.66,0.766-2.549c-3.105-4.151-5.132-6.808-8.305-10.909
		C254.712,58.39,254.854,57.346,255.587,56.79 M247.152,52.99c-3.398,1.462-5.44,2.368-8.293,3.676
		c-1.095,0.503-2.344-0.297-2.344-1.501v-9.209c0-0.645,0.379-1.232,0.965-1.503c3.636-1.678,5.752-2.625,9.672-4.311
		c4.068-1.751,7.137-0.549,7.137,3.448S251.22,51.24,247.152,52.99"/>
	<path clip-path="url(#SVGID_2_)" d="M282.41,37.372V20.008c0-0.555-0.527-0.961-1.065-0.825c-3.189,0.806-5.159,1.37-8.469,2.399
		c-0.356,0.111-0.601,0.442-0.601,0.815c0,15.274,0,30.549-0.001,45.823c0,0.574,0.56,0.982,1.108,0.812
		c3.149-0.974,5.112-1.527,8.38-2.348c0.379-0.095,0.647-0.441,0.647-0.832c0-5.326,0.001-8.24,0.001-13.689
		c0-0.173,0.057-0.353,0.156-0.496c1.17-1.686,1.88-2.703,2.939-4.204c0.315-0.446,0.966-0.489,1.333-0.085
		c4.585,5.059,9.056,10.22,13.41,15.478c0.182,0.22,0.468,0.333,0.752,0.302c4.088-0.45,6.509-0.618,10.264-0.654
		c0.712-0.007,1.104-0.837,0.656-1.391c-5.956-7.392-12.164-14.581-18.61-21.55c-0.277-0.3-0.303-0.755-0.06-1.084
		c5.571-7.539,11.326-14.946,17.312-22.161c0.467-0.562,0.057-1.406-0.675-1.39c-3.727,0.083-6.148,0.281-10.253,0.778
		c-0.236,0.029-0.459,0.157-0.599,0.351c-5.162,7.164-10.175,14.435-15.069,21.784C283.499,38.543,282.41,38.215,282.41,37.372"/>
	<path clip-path="url(#SVGID_2_)" d="M303.401,71.15c-5.431-0.001-10.155,1.948-13.517,5.27c-3.363,3.32-5.355,8.009-5.354,13.44
		c-0.001,5.432,1.991,10.12,5.354,13.441c3.361,3.32,8.086,5.271,13.517,5.27c5.455,0.001,10.194-1.948,13.562-5.27
		c3.37-3.32,5.362-8.01,5.36-13.441c0.002-5.431-1.99-10.12-5.36-13.441C313.596,73.099,308.857,71.149,303.401,71.15
		 M310.953,97.886c-1.809,2.003-4.387,3.215-7.552,3.218c-3.166-0.003-5.729-1.214-7.524-3.217
		c-1.793-2.004-2.815-4.814-2.815-8.026c0-3.238,1.022-6.048,2.815-8.045c1.795-1.995,4.357-3.195,7.524-3.197
		c3.168,0.002,5.744,1.202,7.552,3.198c1.806,1.997,2.841,4.807,2.841,8.044C313.794,93.07,312.759,95.882,310.953,97.886"/>
	<path clip-path="url(#SVGID_2_)" d="M337.451,79.149h12.971c1.258,0,2.277-1.02,2.277-2.277v-2.861c0-1.258-1.02-2.277-2.277-2.277
		h-21.289c-1.258,0-2.277,1.019-2.277,2.277v33.922h0.389h5.651c1.258,0,2.278-1.019,2.278-2.277V95.554
		c0-1.258,1.019-2.277,2.277-2.277h12.599c1.258,0,2.278-1.02,2.278-2.277v-2.86c0-1.258-1.021-2.278-2.278-2.278h-12.599
		c-1.259,0-2.277-1.019-2.277-2.277v-2.157C335.174,80.169,336.192,79.149,337.451,79.149"/>
	<path clip-path="url(#SVGID_2_)" d="M119.604,19.016H99.241c-0.586,0-1.06,0.475-1.06,1.06v3.757c0,0.586,0.474,1.06,1.06,1.06
		h5.836c0.586,0,1.06,0.475,1.06,1.06v21.054h0.389h5.163c0.585,0,1.06-0.474,1.06-1.06V25.953c0-0.585,0.474-1.06,1.059-1.06h5.796
		c0.585,0,1.06-0.474,1.06-1.06v-3.757C120.664,19.491,120.189,19.016,119.604,19.016"/>
	<path clip-path="url(#SVGID_2_)" d="M128.831,19.016h-3.887c-0.741,0-1.342,0.601-1.342,1.342v25.307
		c0,0.741,0.601,1.342,1.342,1.342h3.887c0.741,0,1.342-0.601,1.342-1.342v-8.74c0-0.741,0.601-1.342,1.342-1.342h9.391
		c0.741,0,1.342,0.601,1.342,1.342v10.082h0.389h4.881c0.741,0,1.342-0.601,1.342-1.342V20.358c0-0.741-0.601-1.342-1.342-1.342
		h-3.928c-0.741,0-1.342,0.601-1.342,1.342v8.006c0,0.741-0.601,1.342-1.342,1.342h-9.391c-0.741,0-1.342-0.601-1.342-1.342v-8.006
		C130.173,19.617,129.572,19.016,128.831,19.016"/>
	<path clip-path="url(#SVGID_2_)" d="M158.64,19.016h-3.848c-0.752,0-1.361,0.609-1.361,1.361v26.63h0.388h4.821
		c0.752,0,1.361-0.609,1.361-1.361V20.377C160,19.625,159.392,19.016,158.64,19.016"/>
	<path clip-path="url(#SVGID_2_)" d="M178.289,40.804c-0.699,0.5-1.802,0.856-3.334,0.856c-3.635,0-6.514-1.619-8.37-3.553
		l-0.324-0.338l-3.604,5.054l0.229,0.232c2.602,2.647,6.474,4.444,11.783,4.441c3.736,0,6.559-0.955,8.455-2.594
		c1.897-1.637,2.83-3.947,2.827-6.526c0.007-2.64-1.039-4.506-2.581-5.786c-2.31-1.922-5.658-2.627-8.399-3.291
		c-1.369-0.327-2.589-0.645-3.422-1.054c-0.417-0.204-0.732-0.428-0.93-0.664c-0.197-0.238-0.292-0.475-0.295-0.792
		c0.006-0.705,0.281-1.247,0.846-1.665c0.565-0.414,1.453-0.681,2.642-0.68c2.689-0.001,5.533,0.911,7.651,2.874l0.315,0.291
		l3.695-4.865l-0.259-0.239c-2.77-2.563-6.47-3.9-10.871-3.898c-3.278,0-5.953,0.962-7.815,2.535
		c-1.861,1.571-2.898,3.759-2.896,6.136c-0.008,2.66,1.042,4.519,2.59,5.78c2.318,1.894,5.674,2.548,8.417,3.215
		c1.371,0.329,2.59,0.662,3.421,1.104c0.416,0.221,0.73,0.465,0.932,0.73c0.201,0.267,0.305,0.55,0.307,0.922
		C179.297,39.672,178.988,40.3,178.289,40.804"/>
	<path clip-path="url(#SVGID_2_)" d="M472.541,138.179c3.3-0.004,3.3-5.121,0-5.117c-7.773,0.009-13.672,5.855-14.662,13.381
		c-0.996,7.558,5.464,12.326,12.149,13.014c15.63,1.608,27.102-13.197,25.785-27.813c-0.688-7.648-4.911-14.689-11.499-18.667
		c-7.36-4.444-17.017-3.039-24.783-0.631c-10.421,3.231-20.438,8.688-30.298,13.301c-8.762,4.101-52.874,29.323-62.889,34.376
		c0,0-2.958,0.997-3.128,2.112c-0.883,1.828,0.601,3.344,4.394,3.005h80.433c1.03,0.107,2.086,0.086,3.11,0.08
		c0.307-0.001,0.575-0.057,0.827-0.134c2.058-0.397,2.466-3.037,1.235-4.339c-0.437-0.573-1.117-0.97-2.062-0.965
		c-1.149,0.007-3.226,0.423-3.908-0.764c-0.2-0.349,0.026-2.044,0.412-2.086c1.474-0.159,2.72-1.115,2.72-2.719
		c0-1.361-1.243-2.879-2.72-2.719c-4.142,0.448-6.434,4.276-5.782,8.267l0.058,0.261h-63.154
		c22.021-10.961,55.328-31.058,63.133-34.646c8.877-4.083,18.031-9.02,27.896-10.016c8.799-0.891,16.535,3.145,19.743,11.562
		c2.677,7.023,1.176,15.355-3.631,21.078c-4.237,5.045-12.025,7.636-18.4,5.831c-3.738-1.061-5.066-5.037-4.293-8.54
		C464.165,141.039,468.358,138.184,472.541,138.179"/>
	<path clip-path="url(#SVGID_2_)" d="M103.106,165.996h22.66h3.625h180.746c2.456,0,3.186-2.662,2.202-4.261v-43.39
		c0-1.755-1.362-2.631-2.723-2.629c-0.96-0.911-2.411-1.152-3.474,0.189c-9.53,12.044-17.223,26.525-32.601,31.775
		c-8.625,2.945-19.392,3.242-27.638-1.006c-1.539-1.263-3.19-2.398-4.936-3.405c-1.34-1.218-2.554-2.612-3.597-4.214
		c-6.584-10.107-0.915-28.575,13.23-26.057c9.166,1.632,5.081,16.642-1.76,13.357c-3.146-1.51-5.906,3.179-2.745,4.695
		c10.017,4.808,18.28-7.431,14.519-16.463c-2.412-5.796-8.677-7.64-14.507-7.145c-6.996,0.595-12.587,5.599-15.086,11.984
		c-2.748,7.021-2.224,13.973,0.613,19.853c-11.337-3.445-24.425-3.091-35.019,0.09c-5.519,1.658-11.687,8.113-7.36,13.941
		c3.633,4.894,11.734,4.871,16.597,2.083c3.041-1.743,0.303-6.442-2.745-4.696c-2.078,1.192-9.62,2.312-9.796-1.604
		c-0.241-5.345,10.74-5.782,14.085-6.108c10.231-0.997,21.98-0.359,31.078,5.037c1.283,1.086,2.672,2.072,4.16,2.939
		c0.206,0.147,0.417,0.264,0.631,0.349c1.812,0.997,3.753,1.829,5.808,2.457c15.775,4.823,33.352-1.25,44.45-12.831
		c5.017-5.235,9.075-11.287,13.376-17.118v36.738H129.391h-3.625H106.99v-13.762c5.171,0.528,10.378,0.456,15.538-0.223
		c0.16-0.021,0.306-0.063,0.451-0.105c26.621-1.557,52.101-11.893,75.857-23.347c12.886-6.213,25.223-13.045,37.34-20.641
		c5.822-3.65,11.8-6.988,17.733-10.446c2.683-1.564,5.394-3.012,8.406-3.825c1.187-0.321,2.491-0.191,3.676,0.043
		c0.095,0.018,0.183,0.054,0.275,0.077c-0.187,0.167-0.389,0.409-0.608,0.737c-2.943,1.883-0.219,6.592,2.745,4.695
		c3.833-2.452,6.136-6.391,1.796-9.647c-4.133-3.102-10.364-1.079-14.453,0.768c-6.856,3.097-13.477,7.434-19.869,11.378
		c-7.297,4.503-14.469,9.191-22.036,13.239c-28.415,15.199-60.127,30.271-92.866,31.636c-0.447,0.019-0.836,0.125-1.169,0.295
		c-4.914,0.443-9.856,0.35-14.758-0.295c-0.476-0.062-0.88-0.006-1.224,0.125c-1.195,0.173-2.272,1.034-2.272,2.595v16.169h0.029
		v5.515C101.982,165.819,102.486,165.996,103.106,165.996"/>
	<path clip-path="url(#SVGID_2_)" d="M383.281,46.568c-2.63-4.541-8.268-7.78-13.547-7.143c-6.149,0.742-8.626,6.341-8.312,11.98
		c0.193,3.486,5.633,3.505,5.438,0c-0.584-10.493,10.867-6.488,12.916,0.723c3.411,12.004-6.544,25.528-16.23,31.5
		c-2.054,1.267-1.394,3.896,0.197,4.802c0.544,1.471,2.107,2.483,3.713,1.3c8.341-6.145,63.109-42.528,120.341-49.609
		c1.37-0.169,2.196-1.084,2.488-2.115c0.146-0.323,0.23-0.69,0.23-1.103c0-1.355-1.243-2.888-2.719-2.719
		c-2.085,0.238-4.894,0.679-6.597-0.861c-1.394-1.259-1.156-3.006,0.771-3.024c3.505-0.033,3.508-5.471,0-5.438
		c-4.902,0.046-8.241,4.243-6.662,9.021c0.292,0.884,0.7,1.636,1.185,2.292c-7.01,1.376-13.903,3.371-20.955,4.804
		c-20.537,4.175-50.3,19.56-70.413,31.258c4.515-8.62,9.971-16.706,14.681-25.225c5.249-9.495,9.966-18.988,21.033-22.701
		c4.449-1.492,8.99-0.874,12.391,2.472c3.047,2.999,2.959,8.145,0.158,11.196c-3.146,3.428-12.049,5.73-11.368-1.334
		c0.337-3.491-5.104-3.459-5.438,0c-0.939,9.732,8.857,11.517,16.059,8.413c9.713-4.187,11.046-17.667,2.469-23.834
		c-11.38-8.181-25.483,1.08-32.718,10.43c-4.655,6.016-7.564,13.337-11.466,19.856c-1.692,2.827-3.414,5.633-5.1,8.458
		C386.395,55.38,385.724,50.788,383.281,46.568"/>
	<path clip-path="url(#SVGID_2_)" d="M109.977,59.697c-4.692,5.442-6.014,13.364,1.727,17.233
		c5.627,2.813,12.982,1.685,16.778-3.362c3.468-4.613,1.257-10.394-4.788-9.991c-3.48,0.231-3.503,5.671,0,5.438
		c1.181-0.079,1.349-0.605,0.763,0.685c-0.57,1.255-1.521,2.23-2.806,2.74c-2.824,1.121-7.841,0.612-9.644-2.1
		c-2.803-4.216,3.706-9.868,7.837-10.778h32.595c3.507,0,3.507-5.438,0-5.438h-30.39C114.047,54.124,110.77,59.065,109.977,59.697"
		/>
	<path clip-path="url(#SVGID_2_)" d="M509.302,0.053C509.128,0.023,508.951,0,508.773,0H340.451c-0.966,0-1.874,0.447-2.463,1.212
		l-26.414,34.313c-0.949,1.233-0.836,2.992,0.266,4.093l19.842,19.842c0.771,0.772,1.846,1.048,2.839,0.84
		c4.822,1.963,10.135-0.145,12.826-4.98c3.033-5.449-2.093-13.111-8.273-10.277c-3.184,1.46-0.418,6.146,2.745,4.695
		c0.485-0.222,0.995,1.617,1.016,1.895c0.069,0.951-0.648,1.768-1.246,2.408c-1.77,1.894-3.648,1.995-5.617,0.918l-17.807-17.806
		L341.98,6.215h163.685v168.068H92.657V6.215h181.817c-18.299,6.728-32.427,12.889-43.754,18.227
		c-10.316,4.863-18.31,9.035-24.969,12.307c0.275-0.653,0.55-1.305,0.823-1.961c1.08-2.598,2.15-5.2,3.283-7.613
		c1.691-3.623,3.554-6.8,5.606-8.886c1.024-1.049,2.077-1.829,3.188-2.351c1.114-0.519,2.291-0.804,3.708-0.808
		c0.946-0.001,1.661,0.098,2.152,0.227c0.37,0.096,0.613,0.206,0.758,0.292c0.22,0.135,0.228,0.184,0.245,0.205
		c0.011,0.022,0.039,0.068,0.041,0.25c0.004,0.224-0.077,0.651-0.306,1.136c-0.333,0.731-0.989,1.558-1.685,2.091
		c-0.345,0.271-0.694,0.47-0.986,0.588c-0.295,0.119-0.524,0.154-0.667,0.154c-0.157-0.005-0.214-0.021-0.333-0.086
		c-0.115-0.069-0.323-0.223-0.599-0.66c-0.91-1.454-2.828-1.895-4.282-0.985c-1.455,0.911-1.896,2.829-0.985,4.283
		c0.707,1.134,1.626,2.082,2.72,2.722c1.09,0.645,2.325,0.946,3.479,0.941c1.439-0.003,2.742-0.419,3.877-1.017
		c1.705-0.909,3.097-2.231,4.161-3.774c0.529-0.774,0.971-1.609,1.294-2.507c0.321-0.897,0.526-1.861,0.528-2.886
		c0.001-0.945-0.184-1.951-0.634-2.9c-0.335-0.71-0.817-1.376-1.41-1.936c-0.893-0.844-2.007-1.437-3.236-1.809
		c-1.234-0.373-2.597-0.543-4.132-0.544c-2.041-0.002-3.97,0.393-5.709,1.114c-1.523,0.63-2.897,1.499-4.126,2.521
		c-2.153,1.794-3.877,4.04-5.377,6.483c-2.244,3.668-4.001,7.82-5.67,11.826c-1.662,4.002-3.24,7.863-4.931,10.827
		c-0.664,1.167-0.508,2.614,0.388,3.613c0.897,0.999,2.32,1.309,3.551,0.775c8.543-3.716,18.409-9.191,32.884-16.01
		c14.468-6.817,33.53-14.985,60.277-24.012c1.44-0.486,2.32-1.948,2.073-3.448C295.473,1.105,294.171,0,292.652,0H89.251
		c-0.178,0-0.354,0.023-0.528,0.053H0v180.445h85.51c1.581,0.083,3.173,0.126,4.775,0.126l0.002-0.126h2.369h413.261h2.368
		l0.002,0.126c1.603,0,3.193-0.043,4.775-0.126h85.51V0.053H509.302z M6.215,6.268h53.133c-24.064,9.268-43.64,28.193-53.133,51.91
		V6.268z M6.215,174.283v-50.964c9.119,23.229,27.587,41.759,50.773,50.964H6.215z M84.821,123.401
		c-8.285-0.396-15.736-3.979-21.253-9.609c-5.847-5.979-9.468-14.229-9.469-23.378c0.001-9.15,3.622-17.398,9.469-23.378
		c5.708-5.827,13.488-9.452,22.119-9.632L84.821,123.401z M86.144,22.655L85.77,51.187c-10.402,0.156-19.827,4.53-26.643,11.503
		c-6.949,7.098-11.243,16.917-11.242,27.724c-0.001,10.808,4.293,20.625,11.242,27.725c6.591,6.741,15.62,11.057,25.613,11.477
		l-0.585,44.575c-20.147-1.442-38.891-9.98-53.316-24.405C14.96,133.906,6.215,112.794,6.215,90.338
		c0-22.273,9.137-43.357,25.73-59.369c8.015-7.735,17.294-13.818,27.577-18.079c8.571-3.553,17.5-5.685,26.621-6.373V22.655z
		 M513.754,123.444l-0.87-66.205c0.286,0.087,0.584,0.148,0.897,0.148c8.896,0.002,16.926,3.674,22.78,9.649
		c5.847,5.98,9.468,14.228,9.469,23.378c-0.001,9.149-3.622,17.398-9.469,23.378c-5.854,5.976-13.885,9.647-22.78,9.649
		L513.754,123.444z M513.834,129.655c10.611-0.013,20.238-4.426,27.17-11.517c6.948-7.1,11.242-16.917,11.241-27.725
		c0.001-10.807-4.293-20.626-11.241-27.724c-6.943-7.103-16.591-11.52-27.223-11.518c-0.343,0-0.667,0.069-0.975,0.171
		l-0.589-44.846c9.195,0.671,18.195,2.813,26.834,6.393c10.282,4.261,19.561,10.344,27.577,18.079
		c16.592,16.012,25.729,37.096,25.729,59.369c0,22.456-8.745,43.568-24.624,59.447c-14.425,14.425-33.168,22.963-53.314,24.405
		L513.834,129.655z M592.358,174.283h-50.772c23.185-9.205,41.652-27.735,50.772-50.964V174.283z M592.358,58.178
		c-9.494-23.717-29.069-42.642-53.133-51.91h53.133V58.178z"/>
	<path clip-path="url(#SVGID_2_)" d="M51.091,160.541l-0.055,0.138l-0.022,0.116l-0.019,0.107l0.001,0.159l0.001,0.065
		c0.025,0.227,0.116,0.443,0.264,0.621l0.005,0.005c0.095,0.111,0.212,0.209,0.351,0.282l0.216,0.086l0.115,0.021l0.109,0.021
		l0.206-0.002l0.019-0.001c0.227-0.025,0.444-0.116,0.621-0.266l0.01-0.009c0.109-0.094,0.204-0.208,0.275-0.343l16.299-31.066
		c-0.757-0.368-1.497-0.762-2.229-1.171l-16.137,31.16L51.091,160.541z"/>
	<path clip-path="url(#SVGID_2_)" d="M33.38,147.405c-0.106,0.112-0.187,0.242-0.24,0.383l-0.005,0.017
		c-0.048,0.135-0.074,0.277-0.07,0.423l0.001,0.014c0.005,0.146,0.038,0.287,0.094,0.418l0.003,0.011
		c0.061,0.139,0.15,0.268,0.264,0.376c0.114,0.108,0.246,0.19,0.389,0.244l0.011,0.003c0.133,0.049,0.276,0.074,0.422,0.072
		l0.013,0.001c0.146-0.004,0.287-0.037,0.419-0.093l0.017-0.006c0.137-0.061,0.263-0.147,0.37-0.259l0.005-0.003l24.237-25.378
		c-0.592-0.532-1.174-1.076-1.737-1.639l-0.089-0.093L33.384,147.4L33.38,147.405z"/>
	<path clip-path="url(#SVGID_2_)" d="M41.756,154.622l-0.075,0.131l-0.037,0.11l-0.035,0.104l-0.021,0.161l-0.007,0.062
		c-0.008,0.229,0.052,0.455,0.174,0.652l0.004,0.005c0.079,0.125,0.182,0.237,0.309,0.328l0.202,0.116l0.116,0.039l0.1,0.033
		l0.215,0.027l0.008,0.001c0.228,0.007,0.456-0.054,0.652-0.176l0.011-0.008c0.121-0.077,0.231-0.177,0.32-0.301l20.465-28.498
		c-0.697-0.47-1.377-0.961-2.044-1.469l-20.318,28.611L41.756,154.622z"/>
	<path clip-path="url(#SVGID_2_)" d="M71.764,168.212l-0.015,0.152l0.01,0.114l0.012,0.111l0.045,0.153l0.019,0.062
		c0.086,0.213,0.233,0.396,0.425,0.525l0.005,0.003c0.123,0.082,0.262,0.144,0.416,0.174l0.232,0.023l0.119-0.011l0.107-0.011
		l0.204-0.061l0.012-0.004c0.211-0.086,0.394-0.234,0.524-0.426l0.006-0.013c0.079-0.12,0.139-0.255,0.17-0.404l7.107-34.367
		c-0.83-0.145-1.653-0.312-2.467-0.501l-6.923,34.401L71.764,168.212z"/>
	<path clip-path="url(#SVGID_2_)" d="M61.18,165.017L61.18,165.017l-0.002,0.006l-0.018,0.074l-0.036,0.149l-0.006,0.114
		l-0.004,0.113l0.023,0.155l0.01,0.065c0.057,0.223,0.177,0.424,0.348,0.579l0.005,0.003c0.11,0.1,0.24,0.179,0.388,0.231
		l0.226,0.055l0.121,0.006l0.106,0.004c0.307-0.016,0.595-0.153,0.801-0.382l0.008-0.011c0.095-0.108,0.173-0.234,0.224-0.378
		l11.819-33.036c-0.802-0.258-1.591-0.542-2.372-0.845l-11.64,33.094L61.18,165.017z"/>
	<path clip-path="url(#SVGID_2_)" d="M19.606,130.244l-0.009,0.011c-0.139,0.185-0.22,0.405-0.233,0.634v0.005l0.009,0.22
		l0.025,0.104l0.028,0.118l0.098,0.212c0.079,0.135,0.182,0.247,0.299,0.336l0.005,0.004c0.185,0.139,0.406,0.219,0.634,0.231
		l0.063-0.002l0.161-0.007l0.107-0.024l0.114-0.028l0.139-0.063l0.07-0.031l0.005-0.004h0.001l30.288-17.71
		c-0.446-0.71-0.876-1.431-1.282-2.167l-30.194,17.871C19.803,130.03,19.694,130.131,19.606,130.244"/>
	<path clip-path="url(#SVGID_2_)" d="M9.012,89.699l0.139,0.079l0.103,0.035l0.113,0.037l0.146,0.019l0.082,0.011l35.074,1.031
		l-0.002-0.081c0-0.817,0.026-1.629,0.07-2.436L9.664,87.55H9.663H9.657l-0.075,0.006l-0.155,0.012l-0.108,0.029l-0.111,0.031
		l-0.139,0.07l-0.061,0.031c-0.13,0.082-0.242,0.188-0.331,0.313l-0.002,0.004l-0.109,0.191l-0.038,0.111l-0.035,0.105l-0.029,0.231
		l0.017,0.232l0.032,0.118l0.029,0.101l0.098,0.197l0.002,0.004c0.082,0.13,0.189,0.242,0.314,0.331L9.012,89.699z"/>
	<path clip-path="url(#SVGID_2_)" d="M44.834,94.54L9.97,98.587l-0.081,0.018l-0.144,0.032l-0.109,0.047l-0.099,0.043l-0.132,0.091
		l-0.053,0.037c-0.117,0.099-0.214,0.22-0.284,0.355l-0.001,0.004l-0.082,0.205l-0.018,0.098l-0.024,0.127l0.003,0.232l0.05,0.228
		l0.046,0.107l0.044,0.102l0.122,0.176l0.006,0.009c0.099,0.117,0.22,0.213,0.357,0.283l0.061,0.025l0.147,0.058l0.111,0.022
		l0.112,0.02l0.156-0.002h0.074l0.006-0.001h0.001h0.003l34.87-3.86C44.995,96.215,44.904,95.381,44.834,94.54"/>
	<path clip-path="url(#SVGID_2_)" d="M45.772,100.615l-33.956,8.858c-0.148,0.039-0.28,0.104-0.396,0.189l-0.011,0.008
		c-0.185,0.14-0.324,0.329-0.399,0.546l-0.001,0.005l-0.052,0.213l-0.005,0.104l-0.005,0.123l0.035,0.23
		c0.039,0.15,0.107,0.287,0.195,0.404l0.004,0.008c0.139,0.184,0.329,0.32,0.545,0.396l0.068,0.018l0.15,0.035l0.115,0.007
		l0.112,0.004l0.155-0.023l0.073-0.011l0.005-0.002h0.001l0.003-0.001l33.991-8.674C46.168,102.249,45.959,101.438,45.772,100.615"
		/>
	<path clip-path="url(#SVGID_2_)" d="M15.16,119.997c-0.141,0.059-0.263,0.143-0.366,0.243l-0.01,0.01
		c-0.164,0.163-0.274,0.371-0.319,0.595v0.005l-0.022,0.219l0.01,0.107l0.011,0.119l0.067,0.223c0.06,0.146,0.146,0.271,0.25,0.375
		l0.004,0.005c0.164,0.163,0.372,0.273,0.596,0.318l0.067,0.007l0.156,0.015l0.11-0.01l0.116-0.012l0.144-0.042l0.077-0.023
		l32.462-13.325c-0.342-0.764-0.666-1.537-0.965-2.323L15.16,119.997z"/>
	<path clip-path="url(#SVGID_2_)" d="M25.993,139.201l-0.109,0.105l-0.066,0.096l-0.062,0.093l-0.063,0.144l-0.026,0.062
		c-0.047,0.146-0.065,0.3-0.053,0.452l0.001,0.005l0.039,0.216l0.04,0.103l0.044,0.109l0.126,0.196l0.162,0.167l0.101,0.069
		l0.086,0.06l0.199,0.086l0.008,0.003c0.146,0.047,0.3,0.063,0.452,0.051l0.069-0.012l0.152-0.028l0.106-0.041l0.106-0.042
		l0.131-0.084l0.063-0.04l0.004-0.003l0.003-0.002l27.528-21.753c-0.541-0.642-1.069-1.294-1.573-1.966l-27.412,21.899
		L25.993,139.201z"/>
	<path clip-path="url(#SVGID_2_)" d="M9.558,77.991l0.069,0.203l0.003,0.01c0.094,0.209,0.248,0.386,0.444,0.509l0.012,0.006
		c0.123,0.075,0.26,0.13,0.411,0.156l34.594,5.903c0.115-0.835,0.249-1.664,0.41-2.484l-34.618-5.718l-0.081-0.005l-0.149-0.009
		l-0.115,0.014l-0.11,0.015l-0.148,0.05l-0.065,0.022c-0.208,0.094-0.386,0.247-0.509,0.443l-0.003,0.006
		c-0.077,0.125-0.133,0.267-0.159,0.421l-0.016,0.233l0.016,0.119L9.558,77.991z"/>
	<path clip-path="url(#SVGID_2_)" d="M75.927,12.729l5.076,34.726c0.822-0.146,1.652-0.27,2.49-0.37l-5.259-34.689l-0.001-0.004
		l-0.001-0.006l-0.018-0.072l-0.039-0.151l-0.048-0.103l-0.05-0.102l-0.094-0.128l-0.04-0.052c-0.103-0.114-0.227-0.206-0.365-0.272
		l-0.005-0.001l-0.207-0.075l-0.101-0.015l-0.124-0.018l-0.232,0.011l-0.226,0.057l-0.113,0.053l-0.093,0.045l-0.176,0.131
		l-0.004,0.003c-0.113,0.103-0.205,0.228-0.271,0.366l-0.023,0.062l-0.053,0.15l-0.016,0.107l-0.017,0.117l0.006,0.146
		L75.927,12.729z"/>
	<path clip-path="url(#SVGID_2_)" d="M30.202,37.442l-0.123-0.088l-0.105-0.049l-0.101-0.045l-0.154-0.037l-0.065-0.015
		c-0.226-0.031-0.458,0.004-0.666,0.105l-0.089,0.055l-0.105,0.064l-0.171,0.158c-0.104,0.117-0.181,0.252-0.231,0.397l-0.002,0.01
		c-0.045,0.136-0.064,0.279-0.057,0.425v0.013c0.009,0.146,0.047,0.286,0.107,0.415l0.006,0.017
		c0.065,0.136,0.157,0.258,0.272,0.362l0.003,0.004l0.004,0.004l0.004,0.003l26.2,23.33c0.539-0.644,1.099-1.269,1.673-1.881
		L30.266,37.488L30.202,37.442z"/>
	<path clip-path="url(#SVGID_2_)" d="M38.201,29.815l-0.109-0.104l-0.096-0.062l-0.096-0.06l-0.144-0.057l-0.065-0.025
		c-0.147-0.041-0.302-0.054-0.454-0.036l-0.005,0.001l-0.214,0.047l-0.097,0.041l-0.112,0.049l-0.191,0.133l-0.162,0.168
		l-0.066,0.104l-0.056,0.088l-0.079,0.203l-0.003,0.006c-0.041,0.148-0.053,0.302-0.035,0.454l0.013,0.066l0.034,0.154l0.044,0.102
		l0.047,0.106l0.086,0.125l0.044,0.065l22.703,26.755c0.622-0.563,1.265-1.103,1.919-1.63L38.258,29.87L38.201,29.815z"/>
	<path clip-path="url(#SVGID_2_)" d="M46.93,23.121l-0.01-0.009c-0.19-0.132-0.414-0.205-0.642-0.21H46.27l-0.215,0.017
		l-0.106,0.028l-0.114,0.032l-0.208,0.105c-0.132,0.084-0.241,0.191-0.326,0.311l-0.004,0.005c-0.132,0.19-0.204,0.413-0.209,0.641
		l0.004,0.066l0.013,0.159l0.028,0.104l0.032,0.115l0.067,0.134l0.036,0.071L64.023,54.34c0.694-0.47,1.404-0.918,2.126-1.349
		L47.234,23.438C47.151,23.31,47.047,23.205,46.93,23.121"/>
	<path clip-path="url(#SVGID_2_)" d="M17.75,55.642l-0.139-0.049l-0.116-0.019l-0.109-0.015l-0.161,0.007l-0.063,0.003
		c-0.226,0.033-0.439,0.131-0.611,0.286l-0.004,0.004c-0.11,0.099-0.203,0.22-0.27,0.361l-0.079,0.219l-0.018,0.119l-0.016,0.107
		l0.01,0.208l0.001,0.016c0.032,0.226,0.131,0.44,0.286,0.612l0.01,0.009c0.097,0.106,0.214,0.197,0.352,0.263l0.006,0.003h0.002
		l31.615,15.205c0.341-0.769,0.704-1.525,1.087-2.27L17.828,55.67L17.75,55.642z"/>
	<path clip-path="url(#SVGID_2_)" d="M23.337,46.105l-0.13-0.068l-0.114-0.034l-0.104-0.031l-0.161-0.015l-0.062-0.006
		c-0.228,0.001-0.454,0.069-0.645,0.198l-0.006,0.004c-0.122,0.083-0.23,0.189-0.317,0.32l-0.108,0.206l-0.035,0.116l-0.03,0.102
		l-0.021,0.22v0.004c0.001,0.228,0.069,0.454,0.199,0.646l0.008,0.01c0.082,0.118,0.185,0.225,0.312,0.31l0.005,0.003h0.001
		l0.002,0.001l29.192,19.458c0.445-0.714,0.911-1.411,1.395-2.096L23.411,46.145L23.337,46.105z"/>
	<path clip-path="url(#SVGID_2_)" d="M65.182,15.271l9.857,33.675c0.796-0.26,1.599-0.502,2.413-0.718L67.417,14.61
		c-0.044-0.146-0.115-0.276-0.204-0.389l-0.008-0.011c-0.193-0.239-0.474-0.392-0.779-0.425l-0.106-0.001l-0.121-0.001l-0.229,0.043
		c-0.15,0.045-0.284,0.117-0.399,0.209l-0.006,0.004c-0.179,0.146-0.31,0.341-0.377,0.559l-0.014,0.066l-0.032,0.154l-0.002,0.11
		v0.117l0.027,0.148L65.182,15.271z"/>
	<path clip-path="url(#SVGID_2_)" d="M12.157,67.318c0.064,0.219,0.192,0.417,0.369,0.566l0.011,0.008
		c0.111,0.091,0.24,0.165,0.385,0.211l0.006,0.002l0.004,0.001l33.423,10.656c0.23-0.81,0.482-1.61,0.756-2.401l-33.487-10.48
		l-0.08-0.017l-0.145-0.03l-0.117-0.001l-0.11-0.001l-0.155,0.029l-0.066,0.013c-0.219,0.064-0.417,0.19-0.565,0.367l-0.004,0.006
		c-0.095,0.113-0.17,0.245-0.217,0.395l-0.048,0.228l-0.001,0.118l-0.001,0.109l0.041,0.217L12.157,67.318z"/>
	<path clip-path="url(#SVGID_2_)" d="M56.761,17.962l-0.009-0.01c-0.169-0.158-0.381-0.261-0.606-0.298l-0.008-0.001l-0.217-0.014
		l-0.107,0.014l-0.118,0.016l-0.221,0.075c-0.142,0.065-0.265,0.155-0.366,0.262l-0.005,0.005c-0.157,0.169-0.26,0.381-0.296,0.606
		l-0.005,0.065l-0.01,0.159l0.014,0.109l0.016,0.116l0.047,0.14l0.026,0.078l14.447,31.973c0.752-0.369,1.513-0.722,2.288-1.049
		L57.017,18.319C56.954,18.18,56.865,18.061,56.761,17.962"/>
	<path clip-path="url(#SVGID_2_)" d="M548.182,160.679l-0.055-0.138l-0.03-0.076l-16.137-31.159
		c-0.731,0.409-1.473,0.804-2.229,1.171l16.299,31.066c0.071,0.135,0.166,0.249,0.276,0.343l0.009,0.01
		c0.177,0.148,0.395,0.239,0.621,0.265h0.019l0.206,0.003l0.109-0.02l0.115-0.022l0.216-0.086c0.139-0.073,0.256-0.17,0.351-0.282
		l0.006-0.005c0.147-0.178,0.238-0.394,0.264-0.621l0.001-0.064l0.001-0.16l-0.02-0.108L548.182,160.679z"/>
	<path clip-path="url(#SVGID_2_)" d="M566.076,147.788c-0.053-0.141-0.134-0.271-0.24-0.383l-0.003-0.005l-24.101-25.505
		l-0.089,0.094c-0.563,0.563-1.146,1.107-1.737,1.639l24.238,25.377l0.004,0.004c0.107,0.111,0.233,0.198,0.371,0.259l0.016,0.006
		c0.132,0.055,0.273,0.088,0.42,0.092l0.013-0.001c0.146,0.003,0.289-0.021,0.423-0.071l0.01-0.003
		c0.143-0.054,0.275-0.137,0.389-0.245c0.114-0.107,0.203-0.235,0.265-0.376l0.004-0.01c0.056-0.131,0.088-0.271,0.093-0.418
		l0.001-0.013c0.004-0.146-0.021-0.289-0.07-0.423L566.076,147.788z"/>
	<path clip-path="url(#SVGID_2_)" d="M557.608,154.968l-0.035-0.104l-0.037-0.11l-0.075-0.131l-0.039-0.068l-20.317-28.612
		c-0.668,0.507-1.348,0.999-2.045,1.469l20.466,28.497c0.09,0.124,0.198,0.224,0.32,0.301l0.01,0.009
		c0.197,0.122,0.425,0.184,0.653,0.177l0.007-0.001l0.215-0.028l0.102-0.033l0.115-0.04l0.201-0.115
		c0.129-0.091,0.23-0.203,0.31-0.327l0.004-0.007c0.122-0.195,0.182-0.423,0.175-0.65l-0.008-0.063L557.608,154.968z"/>
	<path clip-path="url(#SVGID_2_)" d="M527.445,168.136l-6.924-34.402c-0.813,0.189-1.636,0.357-2.467,0.501l7.106,34.367
		c0.031,0.149,0.092,0.285,0.171,0.405l0.007,0.012c0.13,0.191,0.312,0.34,0.523,0.426l0.013,0.004l0.202,0.061l0.108,0.011
		l0.119,0.011l0.231-0.022c0.153-0.032,0.294-0.094,0.415-0.175l0.007-0.004c0.19-0.129,0.338-0.312,0.425-0.523l0.019-0.062
		l0.045-0.152l0.012-0.112l0.011-0.114l-0.016-0.151L527.445,168.136z"/>
	<path clip-path="url(#SVGID_2_)" d="M538.094,165.246l-0.036-0.149l-0.018-0.074l-0.003-0.006v-0.002l-11.642-33.094
		c-0.78,0.303-1.57,0.586-2.371,0.845l11.818,33.036c0.052,0.145,0.13,0.271,0.225,0.377l0.008,0.011
		c0.206,0.229,0.494,0.366,0.802,0.384l0.104-0.005l0.122-0.006l0.227-0.056c0.147-0.052,0.276-0.132,0.387-0.23l0.006-0.004
		c0.171-0.154,0.291-0.356,0.347-0.578l0.012-0.066l0.022-0.155l-0.004-0.112L538.094,165.246z"/>
	<path clip-path="url(#SVGID_2_)" d="M578.096,131.958L578.096,131.958l0.005,0.003l0.071,0.032l0.138,0.063l0.114,0.028
		l0.106,0.025l0.162,0.006l0.063,0.003c0.228-0.013,0.448-0.093,0.634-0.232l0.004-0.004c0.118-0.089,0.22-0.202,0.3-0.337
		l0.097-0.211l0.029-0.119l0.024-0.103l0.009-0.221v-0.004c-0.013-0.228-0.093-0.449-0.232-0.634l-0.009-0.01
		c-0.088-0.114-0.197-0.215-0.329-0.293l-30.192-17.871c-0.406,0.736-0.838,1.457-1.283,2.166L578.096,131.958z"/>
	<path clip-path="url(#SVGID_2_)" d="M589.561,87.55h-0.007h-0.001l-35.072,0.845c0.044,0.806,0.069,1.618,0.069,2.435l-0.002,0.081
		l35.074-1.031l0.082-0.011l0.146-0.019l0.111-0.037l0.104-0.035l0.139-0.079l0.056-0.032c0.125-0.089,0.232-0.201,0.313-0.331
		l0.003-0.004l0.098-0.197l0.029-0.101l0.032-0.118l0.017-0.232l-0.03-0.231l-0.033-0.105l-0.038-0.111l-0.109-0.191l-0.002-0.004
		c-0.089-0.125-0.201-0.231-0.331-0.313l-0.061-0.031l-0.141-0.07l-0.109-0.031l-0.109-0.03l-0.154-0.011L589.561,87.55z"/>
	<path clip-path="url(#SVGID_2_)" d="M590.232,99.42l-0.082-0.205l-0.001-0.004c-0.071-0.137-0.167-0.257-0.284-0.356l-0.054-0.037
		l-0.132-0.091l-0.099-0.044l-0.109-0.046l-0.144-0.032l-0.081-0.018l-34.864-4.046c-0.069,0.84-0.161,1.675-0.277,2.502
		l34.869,3.858l0.004,0.001h0.006l0.074,0.001l0.156,0.002l0.112-0.021l0.111-0.021l0.146-0.058l0.062-0.025
		c0.137-0.069,0.258-0.167,0.356-0.283l0.006-0.009l0.122-0.176l0.044-0.101l0.046-0.108l0.051-0.228l0.003-0.232l-0.024-0.127
		L590.232,99.42z"/>
	<path clip-path="url(#SVGID_2_)" d="M588.261,110.435l-0.052-0.213l-0.002-0.005c-0.075-0.216-0.214-0.406-0.398-0.546
		l-0.011-0.008c-0.116-0.085-0.249-0.151-0.396-0.189l-33.956-8.858c-0.187,0.821-0.396,1.635-0.628,2.438l33.992,8.674l0.003,0.001
		l0.006,0.001l0.073,0.011l0.155,0.024l0.111-0.005l0.115-0.005l0.149-0.037l0.068-0.018c0.215-0.074,0.406-0.212,0.545-0.396
		l0.004-0.006c0.089-0.118,0.156-0.254,0.195-0.405l0.035-0.231l-0.005-0.122L588.261,110.435z"/>
	<path clip-path="url(#SVGID_2_)" d="M583.243,122.173l0.145,0.043l0.117,0.013l0.108,0.009l0.156-0.015l0.068-0.008
		c0.223-0.045,0.431-0.153,0.595-0.316l0.004-0.006c0.104-0.104,0.19-0.23,0.25-0.375l0.067-0.224l0.012-0.119l0.009-0.106
		l-0.021-0.218l-0.001-0.005c-0.045-0.226-0.155-0.433-0.319-0.597l-0.01-0.009c-0.104-0.1-0.226-0.185-0.366-0.244l-32.388-13.495
		c-0.3,0.786-0.623,1.562-0.965,2.325l32.462,13.324L583.243,122.173z"/>
	<path clip-path="url(#SVGID_2_)" d="M571.713,140.968L571.713,140.968l0.006,0.004l0.062,0.04l0.131,0.084l0.105,0.042l0.105,0.041
		l0.153,0.027l0.068,0.013c0.152,0.012,0.307-0.005,0.452-0.052l0.008-0.004l0.198-0.086l0.087-0.059l0.101-0.07l0.163-0.167
		l0.126-0.195l0.043-0.109l0.04-0.102l0.039-0.218l0.001-0.004c0.013-0.152-0.005-0.307-0.052-0.453l-0.026-0.062l-0.063-0.145
		l-0.062-0.092l-0.066-0.095l-0.108-0.107l-0.056-0.054l-27.412-21.899c-0.505,0.673-1.032,1.324-1.573,1.966l27.528,21.753
		L571.713,140.968z"/>
	<path clip-path="url(#SVGID_2_)" d="M554.126,84.778l34.594-5.903c0.151-0.026,0.288-0.081,0.411-0.156l0.012-0.006
		c0.196-0.123,0.351-0.301,0.444-0.509l0.004-0.01l0.068-0.203l0.014-0.106l0.016-0.119l-0.016-0.233
		c-0.026-0.155-0.082-0.296-0.159-0.422l-0.003-0.005c-0.123-0.196-0.301-0.349-0.509-0.443l-0.065-0.022l-0.147-0.05l-0.109-0.015
		l-0.116-0.014l-0.148,0.009l-0.081,0.005l-34.618,5.718C553.877,83.114,554.011,83.943,554.126,84.778"/>
	<path clip-path="url(#SVGID_2_)" d="M523.294,12.645l0.007-0.146l-0.017-0.117l-0.017-0.108l-0.054-0.149l-0.022-0.062
		c-0.066-0.139-0.157-0.263-0.271-0.366l-0.004-0.003l-0.176-0.132l-0.092-0.044l-0.114-0.053l-0.226-0.058l-0.232-0.011
		l-0.123,0.019l-0.102,0.015l-0.206,0.074l-0.006,0.002c-0.139,0.065-0.263,0.158-0.365,0.271l-0.04,0.053l-0.095,0.128
		l-0.049,0.101l-0.049,0.104l-0.039,0.151l-0.018,0.071l-0.001,0.006v0.001l-0.001,0.003l-5.259,34.69
		c0.838,0.099,1.668,0.223,2.489,0.369l5.076-34.725L523.294,12.645z"/>
	<path clip-path="url(#SVGID_2_)" d="M570.492,39.237L570.492,39.237l0.005-0.004l0.003-0.004c0.115-0.104,0.206-0.226,0.272-0.362
		l0.006-0.016c0.06-0.13,0.098-0.27,0.106-0.416l-0.001-0.013c0.009-0.146-0.012-0.289-0.057-0.424l-0.002-0.011
		c-0.049-0.144-0.127-0.279-0.231-0.397l-0.171-0.158l-0.104-0.064l-0.09-0.055c-0.208-0.1-0.44-0.136-0.666-0.105l-0.064,0.015
		l-0.154,0.037l-0.101,0.045l-0.106,0.049l-0.123,0.088l-0.063,0.046L542.615,60.69c0.574,0.611,1.135,1.236,1.674,1.88l26.2-23.33
		L570.492,39.237z"/>
	<path clip-path="url(#SVGID_2_)" d="M562.776,31.318l0.086-0.125l0.047-0.106l0.044-0.103l0.034-0.154L563,30.766
		c0.018-0.152,0.006-0.307-0.035-0.454l-0.003-0.007l-0.079-0.203l-0.056-0.087l-0.066-0.104l-0.162-0.168l-0.19-0.133l-0.112-0.049
		l-0.097-0.042l-0.214-0.046l-0.005-0.001c-0.152-0.018-0.308-0.006-0.454,0.036l-0.065,0.025l-0.144,0.057l-0.096,0.06
		l-0.097,0.062l-0.109,0.104l-0.057,0.054L538.11,56.508c0.653,0.527,1.297,1.067,1.919,1.629l22.703-26.755L562.776,31.318z"/>
	<path clip-path="url(#SVGID_2_)" d="M553.985,24.618l0.067-0.134l0.031-0.115l0.029-0.104l0.012-0.159l0.005-0.065
		c-0.006-0.228-0.076-0.452-0.209-0.642l-0.005-0.004c-0.085-0.121-0.193-0.228-0.325-0.312l-0.208-0.105l-0.114-0.031l-0.105-0.029
		l-0.216-0.016l-0.008-0.001c-0.229,0.005-0.453,0.078-0.642,0.211l-0.012,0.008c-0.115,0.084-0.221,0.19-0.303,0.318
		l-18.915,29.553c0.721,0.431,1.431,0.879,2.125,1.349l18.756-29.651L553.985,24.618z"/>
	<path clip-path="url(#SVGID_2_)" d="M582.389,57.776L582.389,57.776l0.006-0.003c0.137-0.066,0.255-0.157,0.352-0.263l0.011-0.009
		c0.153-0.172,0.254-0.385,0.286-0.611v-0.017l0.011-0.208l-0.017-0.106l-0.018-0.119l-0.079-0.219
		c-0.068-0.142-0.16-0.263-0.27-0.362l-0.005-0.004c-0.172-0.155-0.386-0.253-0.611-0.285l-0.062-0.004l-0.162-0.007l-0.107,0.016
		l-0.117,0.018l-0.138,0.049l-0.078,0.028l-31.705,15.041c0.383,0.745,0.746,1.501,1.087,2.27l31.615-15.204L582.389,57.776z"/>
	<path clip-path="url(#SVGID_2_)" d="M577.088,48.09L577.088,48.09l0.006-0.003c0.127-0.085,0.23-0.192,0.312-0.31l0.009-0.01
		c0.129-0.192,0.198-0.417,0.198-0.646v-0.004l-0.02-0.22l-0.031-0.102l-0.034-0.116l-0.109-0.206
		c-0.086-0.13-0.194-0.237-0.316-0.32l-0.005-0.004c-0.192-0.129-0.417-0.197-0.646-0.197l-0.062,0.005l-0.161,0.016l-0.104,0.03
		l-0.114,0.034l-0.129,0.068l-0.074,0.039l-29.308,19.309c0.483,0.685,0.95,1.382,1.395,2.096l29.192-19.458L577.088,48.09z"/>
	<path clip-path="url(#SVGID_2_)" d="M534.05,15.193l0.028-0.148l-0.001-0.117l-0.001-0.11l-0.032-0.155l-0.015-0.065
		c-0.067-0.218-0.198-0.414-0.378-0.559l-0.005-0.004c-0.114-0.092-0.249-0.165-0.399-0.209l-0.229-0.044l-0.122,0.001l-0.105,0.002
		c-0.306,0.033-0.586,0.186-0.779,0.425l-0.007,0.011c-0.09,0.113-0.161,0.243-0.205,0.389l-10.035,33.618
		c0.815,0.215,1.618,0.458,2.413,0.718l9.857-33.675L534.05,15.193z"/>
	<path clip-path="url(#SVGID_2_)" d="M586.285,68.106l0.004-0.001l0.006-0.002c0.146-0.046,0.274-0.12,0.385-0.211l0.012-0.008
		c0.177-0.149,0.305-0.347,0.369-0.566l0.001-0.004l0.04-0.217v-0.11l-0.001-0.117l-0.049-0.228
		c-0.047-0.15-0.122-0.282-0.217-0.395l-0.004-0.006c-0.147-0.177-0.346-0.304-0.564-0.367l-0.066-0.013l-0.155-0.029h-0.109
		l-0.117,0.002l-0.146,0.03l-0.08,0.016l-33.486,10.481c0.273,0.791,0.525,1.591,0.756,2.401L586.285,68.106z"/>
	<path clip-path="url(#SVGID_2_)" d="M544.348,19.206l0.048-0.14l0.016-0.116l0.013-0.109l-0.009-0.159l-0.005-0.065
		c-0.037-0.226-0.139-0.437-0.296-0.606l-0.005-0.005c-0.102-0.107-0.225-0.198-0.367-0.262l-0.22-0.075l-0.118-0.016l-0.108-0.014
		l-0.217,0.014l-0.007,0.001c-0.226,0.037-0.438,0.14-0.606,0.297l-0.009,0.011c-0.104,0.099-0.193,0.218-0.257,0.357
		l-14.614,31.889c0.776,0.327,1.537,0.68,2.289,1.049l14.447-31.973L544.348,19.206z"/>
	<path clip-path="url(#SVGID_2_)" d="M60.494,90.841c-0.001,5.293,1.724,10.208,4.638,14.172c2.914,3.966,7.018,7.002,11.796,8.583
		c0.814,0.27,1.708,0.131,2.402-0.371c0.695-0.502,1.106-1.308,1.106-2.164V70.754c0-1.475-1.195-2.67-2.67-2.67
		c-1.474,0-2.67,1.195-2.67,2.67v36.175c-2.214-1.292-4.147-3.018-5.66-5.077c-2.266-3.089-3.601-6.881-3.602-11.011
		c0-1.475-1.195-2.67-2.67-2.67S60.494,89.366,60.494,90.841"/>
	<path clip-path="url(#SVGID_2_)" d="M534.371,76.1c-3.083-4.116-7.368-7.273-12.272-8.974c-0.858-0.297-1.802-0.161-2.539,0.366
		c-0.739,0.526-1.175,1.374-1.175,2.281l0.055,42.249c0.001,0.897,0.432,1.739,1.16,2.264c0.728,0.525,1.663,0.67,2.515,0.388
		c5.006-1.655,9.304-4.835,12.357-8.99c3.052-4.153,4.859-9.302,4.858-14.846C539.331,85.317,537.453,80.212,534.371,76.1
		 M529.962,102.371c-1.585,2.158-3.611,3.968-5.934,5.321l-0.043-33.536c2.291,1.366,4.315,3.168,5.908,5.296
		c2.409,3.224,3.841,7.141,3.843,11.384C533.734,95.163,532.336,99.135,529.962,102.371"/>
	<path clip-path="url(#SVGID_2_)" d="M562.603,16.038c7.521,3.452,12.546,8.472,15.726,12.693c3.176,4.216,4.475,7.619,4.49,7.665
		h0.001c0.452,1.21,1.712,1.929,2.984,1.701c1.275-0.229,2.208-1.344,2.208-2.639V13.601c0-0.706-0.286-1.397-0.785-1.896
		s-1.189-0.785-1.896-0.785h-21.609c-1.263,0-2.349,0.875-2.619,2.109C560.833,14.262,561.456,15.511,562.603,16.038
		 M582.649,16.282v9.278c-2.211-2.947-5.232-6.255-9.237-9.278H582.649z"/>
	<path clip-path="url(#SVGID_2_)" d="M561.103,168.895c0.271,1.233,1.356,2.108,2.619,2.108h21.609c0.706,0,1.396-0.286,1.896-0.786
		c0.499-0.499,0.785-1.188,0.785-1.895v-21.858c0-1.294-0.933-2.41-2.208-2.638c-1.272-0.229-2.532,0.49-2.984,1.701h-0.001
		c-0.016,0.046-1.314,3.449-4.49,7.665c-3.18,4.221-8.205,9.241-15.726,12.692C561.456,166.412,560.833,167.661,561.103,168.895
		 M582.649,156.363v9.278h-9.237C577.417,162.618,580.438,159.311,582.649,156.363"/>
	<path clip-path="url(#SVGID_2_)" d="M36.437,13.029c-0.27-1.234-1.356-2.109-2.619-2.109H12.209c-0.706,0-1.397,0.286-1.896,0.785
		c-0.499,0.5-0.785,1.19-0.785,1.896v21.857c0,1.295,0.933,2.411,2.208,2.639c1.272,0.229,2.532-0.49,2.984-1.701h0.001
		c0.016-0.046,1.315-3.449,4.491-7.665c3.179-4.221,8.205-9.241,15.725-12.693C36.084,15.511,36.707,14.262,36.437,13.029
		 M14.89,25.56v-9.278h9.238C20.123,19.305,17.101,22.613,14.89,25.56"/>
	<path clip-path="url(#SVGID_2_)" d="M19.212,153.191c-3.176-4.216-4.475-7.617-4.491-7.665H14.72
		c-0.452-1.21-1.712-1.929-2.984-1.7c-1.275,0.229-2.208,1.344-2.208,2.639v21.857c0,0.705,0.286,1.396,0.785,1.896
		s1.19,0.785,1.896,0.785h21.609c1.263,0,2.349-0.875,2.619-2.108s-0.353-2.482-1.5-3.009
		C27.417,162.433,22.391,157.413,19.212,153.191 M14.89,165.641v-9.277c2.211,2.946,5.233,6.255,9.238,9.277H14.89z"/>
	<path clip-path="url(#SVGID_2_)" d="M321.449,134.741c0.002,5.426,1.921,10.55,5.189,14.341c3.263,3.791,7.913,6.248,13.278,6.246
		c1.575,0,3.211-0.211,4.884-0.657l-0.225-0.845l0.226,0.845c6.687-1.782,12.331-6.09,16.349-11.594
		c4.018-5.509,6.426-12.224,6.616-18.903c0.006-0.195,0.009-0.389,0.009-0.58c0.011-5.182-2.045-9.154-5.229-11.735
		c-3.182-2.588-7.424-3.818-11.833-3.819c-2.109,0-4.26,0.282-6.363,0.841c-5.915,1.575-11.601,4.659-15.847,9.035
		c-4.243,4.372-7.037,10.073-7.055,16.758V134.741z M344.785,118.629c1.247-0.306,2.412-0.451,3.481-0.451
		c2.661,0.006,4.704,0.876,6.136,2.452c1.43,1.58,2.278,3.945,2.279,7.062v0.11c-0.023,3.804-1.251,7.614-3.405,10.7
		c-2.155,3.089-5.219,5.446-8.924,6.424c-0.994,0.262-1.932,0.383-2.809,0.383c-2.75-0.008-4.931-1.165-6.508-3.135
		c-1.571-1.971-2.496-4.79-2.501-8.039v-0.029C332.538,126.67,337.577,120.4,344.785,118.629l-0.208-0.85L344.785,118.629z"/>
	<path clip-path="url(#SVGID_2_)" d="M375.524,134.887c1.968,1.74,4.607,2.474,7.386,2.474c3.342-0.003,6.931-1.051,10.055-2.84
		l-0.436-0.759l0.436,0.759c5.085-2.919,9.975-6.957,13.62-11.881c3.644-4.92,6.045-10.746,6.066-17.177v-0.003
		c0-7.464,0-14.927,0-22.391c0.002-0.79-0.332-1.498-0.842-1.982c-0.508-0.487-1.188-0.774-1.916-0.775
		c-0.442-0.001-0.901,0.11-1.323,0.343c-1.849,1.014-3.38,1.856-5.503,3.018c-0.884,0.484-1.437,1.408-1.438,2.419
		c0.001,8.064,0.001,16.13,0.001,24.195c-0.005,5.608-3.184,11.281-9.511,14.648c-2.004,1.067-3.655,1.525-4.893,1.522
		c-0.67-0.001-1.216-0.127-1.673-0.352c-0.68-0.336-1.198-0.893-1.587-1.763c-0.383-0.867-0.601-2.042-0.6-3.479
		c0-7.426-0.001-14.851-0.001-22.275c0.002-0.787-0.331-1.494-0.838-1.979c-0.508-0.487-1.19-0.775-1.919-0.776
		c-0.406,0-0.825,0.092-1.22,0.287c-1.816,0.895-3.314,1.608-5.377,2.562c-0.974,0.451-1.603,1.424-1.604,2.503
		c0.001,8.142,0.001,16.283,0.001,24.425c-0.027,0.409-0.042,0.809-0.042,1.195C372.359,130.433,373.552,133.148,375.524,134.887"/>
	<path clip-path="url(#SVGID_2_)" d="M452.908,81.962c1.449-2.668,2.389-5.778,2.389-9.217c-0.001-2.99-0.734-5.518-2.215-7.332
		c-1.477-1.819-3.708-2.834-6.362-2.824c-2.072,0.002-4.413,0.588-6.993,1.803c-6.343,3.004-12.584,6.203-18.759,9.518
		c-1.045,0.561-1.692,1.65-1.692,2.833c0,6.222-0.001,12.444,0,18.667c-0.001,6.223,0,12.444,0,18.667
		c-0.002,0.922,0.386,1.742,0.978,2.308c0.591,0.568,1.388,0.904,2.233,0.905c0.503,0,1.021-0.122,1.504-0.379
		c1.425-0.758,2.72-1.437,4.374-2.292c1.069-0.555,1.739-1.656,1.74-2.859c0-4.688,0-7.601,0-12.287
		c-0.001-0.548,0.311-1.059,0.796-1.307c1.333-0.683,2.365-1.203,3.634-1.832c0.208-0.104,0.427-0.151,0.646-0.151
		c0.447,0,0.883,0.204,1.165,0.578c2.271,2.999,3.81,5.053,6.09,8.143c0.621,0.842,1.592,1.307,2.588,1.307
		c0.437,0,0.88-0.09,1.297-0.275c2.169-0.964,3.805-1.661,5.803-2.459c1.284-0.514,2.025-1.74,2.022-2.991
		c0.001-0.673-0.215-1.366-0.666-1.95c-2.239-2.909-3.906-5.029-6.218-7.922c-0.216-0.272-0.319-0.592-0.32-0.915
		c0.002-0.416,0.172-0.816,0.509-1.1C449.504,86.867,451.458,84.632,452.908,81.962 M444.275,76.61
		c0.001,1.562-0.603,3.123-1.653,4.514c-1.049,1.388-2.542,2.59-4.244,3.401c-2.511,1.199-4.203,2.027-6.152,3.013
		c-0.223,0.112-0.442,0.159-0.658,0.16c-0.377,0-0.75-0.155-1.021-0.417c-0.271-0.265-0.439-0.613-0.441-1.047
		c0-2.074,0-3.867,0-6.255c-0.002-0.545,0.313-1.062,0.799-1.308c3.008-1.542,4.872-2.468,8.229-4.072
		c1.094-0.523,2.065-0.76,2.818-0.758c0.794,0.006,1.312,0.232,1.682,0.63C444.002,74.872,444.273,75.544,444.275,76.61"/>
	<path clip-path="url(#SVGID_2_)" d="M478.404,60.536c2.499,0,4.944,0.634,7.057,1.955c0.471,0.295,1.002,0.434,1.518,0.433
		c0.953-0.001,1.873-0.457,2.46-1.263c0.905-1.25,1.646-2.257,2.554-3.472c0.407-0.545,0.606-1.191,0.606-1.828
		c0.003-0.901-0.406-1.815-1.21-2.391c-3.062-2.202-6.747-3.421-10.882-3.419c-1.534,0-3.13,0.166-4.781,0.508
		c-4.354,0.9-8.429,3.153-11.497,6.337c-3.064,3.182-5.127,7.317-5.377,11.947c-0.014,0.255-0.021,0.504-0.021,0.747
		c-0.001,1.824,0.388,3.341,1.109,4.563c0.63,1.07,1.507,1.897,2.518,2.516c1.772,1.084,3.939,1.574,6.203,1.844
		c3.392,0.399,7.047,0.294,9.888,0.615c1.418,0.156,2.622,0.425,3.442,0.845c0.411,0.208,0.726,0.446,0.956,0.716
		c0.229,0.271,0.388,0.574,0.478,0.974l0.018,0.18c0.003,0.246-0.101,0.622-0.374,1.054c-0.403,0.648-1.169,1.399-2.249,2.05
		c-1.078,0.653-2.47,1.212-4.122,1.53c-1.486,0.286-2.886,0.416-4.191,0.416c-2.823,0-5.208-0.606-7.094-1.556
		c-0.43-0.217-0.894-0.322-1.348-0.321c-1.042-0.001-2.05,0.546-2.604,1.504c-0.983,1.696-1.758,3.047-2.739,4.769
		c-0.27,0.473-0.398,0.992-0.398,1.502c-0.004,1.162,0.675,2.297,1.848,2.78c2.339,0.96,5.113,1.403,8.303,1.403
		c2.448,0,5.145-0.261,8.089-0.762c4.08-0.698,8.447-2.287,11.871-4.94c1.709-1.328,3.184-2.928,4.235-4.82
		c1.052-1.891,1.675-4.075,1.693-6.518v-0.148c0.001-2.108-0.37-3.873-1.054-5.337c-1.194-2.572-3.334-4.131-5.739-5.061
		c-3.613-1.4-7.918-1.547-11.43-1.918c-1.751-0.18-3.301-0.418-4.403-0.827c-0.551-0.203-0.982-0.445-1.288-0.713
		c-0.308-0.27-0.497-0.553-0.611-0.927l-0.028-0.21c-0.003-0.237,0.097-0.615,0.342-1.041c0.362-0.641,1.029-1.375,1.912-1.994
		c0.882-0.622,1.977-1.134,3.191-1.39l-0.181-0.856l0.181,0.856C476.297,60.648,477.354,60.536,478.404,60.536"/>
</g>
</svg>
